<svg width="261" height="438" viewBox="0 0 261 438" fill="none" xmlns="http://www.w3.org/2000/svg">
<path d="M50.16 87.4401C43.68 87.4401 37.64 86.4001 32.04 84.3201C26.52 82.1601 21.72 79.1201 17.64 75.2001C13.56 71.2801 10.36 66.6801 8.03998 61.4001C5.79998 56.1201 4.67998 50.3201 4.67998 44.0001C4.67998 37.6801 5.79998 31.8801 8.03998 26.6001C10.36 21.3201 13.56 16.7201 17.64 12.8001C21.8 8.88006 26.64 5.88005 32.16 3.80005C37.68 1.64006 43.72 0.560059 50.28 0.560059C57.56 0.560059 64.12 1.84006 69.96 4.40006C75.88 6.88006 80.84 10.5601 84.84 15.4401L72.36 26.9601C69.48 23.6801 66.28 21.2401 62.76 19.6401C59.24 17.9601 55.4 17.1201 51.24 17.1201C47.32 17.1201 43.72 17.7601 40.44 19.0401C37.16 20.3201 34.32 22.1601 31.92 24.5601C29.52 26.9601 27.64 29.8001 26.28 33.0801C25 36.3601 24.36 40.0001 24.36 44.0001C24.36 48.0001 25 51.6401 26.28 54.9201C27.64 58.2001 29.52 61.0401 31.92 63.4401C34.32 65.8401 37.16 67.6801 40.44 68.9601C43.72 70.2401 47.32 70.8801 51.24 70.8801C55.4 70.8801 59.24 70.0801 62.76 68.4801C66.28 66.8001 69.48 64.2801 72.36 60.9201L84.84 72.4401C80.84 77.3201 75.88 81.0401 69.96 83.6001C64.12 86.1601 57.52 87.4401 50.16 87.4401Z" fill="#C0ACEB" fill-opacity="0.31"/>
<path d="M137.01 87.4401C130.37 87.4401 124.21 86.3601 118.53 84.2001C112.93 82.0401 108.05 79.0001 103.89 75.0801C99.81 71.1601 96.61 66.5601 94.29 61.2801C92.05 56.0001 90.93 50.2401 90.93 44.0001C90.93 37.7601 92.05 32.0001 94.29 26.7201C96.61 21.4401 99.85 16.8401 104.01 12.9201C108.17 9.00006 113.05 5.96005 118.65 3.80005C124.25 1.64006 130.33 0.560059 136.89 0.560059C143.53 0.560059 149.61 1.64006 155.13 3.80005C160.73 5.96005 165.57 9.00006 169.65 12.9201C173.81 16.8401 177.05 21.4401 179.37 26.7201C181.69 31.9201 182.85 37.6801 182.85 44.0001C182.85 50.2401 181.69 56.0401 179.37 61.4001C177.05 66.6801 173.81 71.2801 169.65 75.2001C165.57 79.0401 160.73 82.0401 155.13 84.2001C149.61 86.3601 143.57 87.4401 137.01 87.4401ZM136.89 70.8801C140.65 70.8801 144.09 70.2401 147.21 68.9601C150.41 67.6801 153.21 65.8401 155.61 63.4401C158.01 61.0401 159.85 58.2001 161.13 54.9201C162.49 51.6401 163.17 48.0001 163.17 44.0001C163.17 40.0001 162.49 36.3601 161.13 33.0801C159.85 29.8001 158.01 26.9601 155.61 24.5601C153.29 22.1601 150.53 20.3201 147.33 19.0401C144.13 17.7601 140.65 17.1201 136.89 17.1201C133.13 17.1201 129.65 17.7601 126.45 19.0401C123.33 20.3201 120.57 22.1601 118.17 24.5601C115.77 26.9601 113.89 29.8001 112.53 33.0801C111.25 36.3601 110.61 40.0001 110.61 44.0001C110.61 47.9201 111.25 51.5601 112.53 54.9201C113.89 58.2001 115.73 61.0401 118.05 63.4401C120.45 65.8401 123.25 67.6801 126.45 68.9601C129.65 70.2401 133.13 70.8801 136.89 70.8801Z" fill="#C0ACEB" fill-opacity="0.31"/>
<path d="M9.95998 232V148H26.04L75.6 208.48H67.8V148H87V232H71.04L21.36 171.52H29.16V232H9.95998Z" fill="#C0ACEB" fill-opacity="0.31"/>
<path d="M124.274 232V163.84H97.394V148H170.594V163.84H143.714V232H124.274Z" fill="#C0ACEB" fill-opacity="0.31"/>
<path d="M165.795 232L203.235 148H222.435L259.995 232H239.595L208.875 157.84H216.555L185.715 232H165.795ZM184.515 214L189.675 199.24H232.875L238.155 214H184.515Z" fill="#C0ACEB" fill-opacity="0.31"/>
<path d="M27.36 378V309.84H0.47998V294H73.68V309.84H46.8V378H27.36Z" fill="#C0ACEB" fill-opacity="0.31"/>
<path d="M123.768 379.44C117.128 379.44 110.968 378.36 105.288 376.2C99.6878 374.04 94.8078 371 90.6478 367.08C86.5678 363.16 83.3678 358.56 81.0478 353.28C78.8078 348 77.6878 342.24 77.6878 336C77.6878 329.76 78.8078 324 81.0478 318.72C83.3678 313.44 86.6078 308.84 90.7678 304.92C94.9278 301 99.8078 297.96 105.408 295.8C111.008 293.64 117.088 292.56 123.648 292.56C130.288 292.56 136.368 293.64 141.888 295.8C147.488 297.96 152.328 301 156.408 304.92C160.568 308.84 163.808 313.44 166.128 318.72C168.448 323.92 169.608 329.68 169.608 336C169.608 342.24 168.448 348.04 166.128 353.4C163.808 358.68 160.568 363.28 156.408 367.2C152.328 371.04 147.488 374.04 141.888 376.2C136.368 378.36 130.328 379.44 123.768 379.44ZM123.648 362.88C127.408 362.88 130.848 362.24 133.968 360.96C137.168 359.68 139.968 357.84 142.368 355.44C144.768 353.04 146.608 350.2 147.888 346.92C149.248 343.64 149.928 340 149.928 336C149.928 332 149.248 328.36 147.888 325.08C146.608 321.8 144.768 318.96 142.368 316.56C140.048 314.16 137.288 312.32 134.088 311.04C130.888 309.76 127.408 309.12 123.648 309.12C119.888 309.12 116.408 309.76 113.208 311.04C110.088 312.32 107.328 314.16 104.928 316.56C102.528 318.96 100.648 321.8 99.2878 325.08C98.0078 328.36 97.3678 332 97.3678 336C97.3678 339.92 98.0078 343.56 99.2878 346.92C100.648 350.2 102.488 353.04 104.808 355.44C107.208 357.84 110.008 359.68 113.208 360.96C116.408 362.24 119.888 362.88 123.648 362.88Z" fill="#C0ACEB" fill-opacity="0.31"/>
<path d="M50.16 145.4C43.68 145.4 37.64 144.36 32.04 142.28C26.52 140.12 21.72 137.08 17.64 133.16C13.56 129.24 10.36 124.64 8.03998 119.36C5.79998 114.08 4.67998 108.28 4.67998 101.96C4.67998 95.6401 5.79998 89.8401 8.03998 84.5601C10.36 79.2801 13.56 74.6801 17.64 70.7601C21.8 66.8401 26.64 63.8401 32.16 61.7601C37.68 59.6001 43.72 58.5201 50.28 58.5201C57.56 58.5201 64.12 59.8001 69.96 62.3601C75.88 64.8401 80.84 68.5201 84.84 73.4001L72.36 84.9201C69.48 81.6401 66.28 79.2001 62.76 77.6001C59.24 75.9201 55.4 75.0801 51.24 75.0801C47.32 75.0801 43.72 75.7201 40.44 77.0001C37.16 78.2801 34.32 80.1201 31.92 82.5201C29.52 84.9201 27.64 87.7601 26.28 91.0401C25 94.3201 24.36 97.9601 24.36 101.96C24.36 105.96 25 109.6 26.28 112.88C27.64 116.16 29.52 119 31.92 121.4C34.32 123.8 37.16 125.64 40.44 126.92C43.72 128.2 47.32 128.84 51.24 128.84C55.4 128.84 59.24 128.04 62.76 126.44C66.28 124.76 69.48 122.24 72.36 118.88L84.84 130.4C80.84 135.28 75.88 139 69.96 141.56C64.12 144.12 57.52 145.4 50.16 145.4Z" fill="#C0ACEB" fill-opacity="0.31"/>
<path d="M137.01 145.4C130.37 145.4 124.21 144.32 118.53 142.16C112.93 140 108.05 136.96 103.89 133.04C99.81 129.12 96.61 124.52 94.29 119.24C92.05 113.96 90.93 108.2 90.93 101.96C90.93 95.7201 92.05 89.9601 94.29 84.6801C96.61 79.4001 99.85 74.8001 104.01 70.8801C108.17 66.9601 113.05 63.9201 118.65 61.7601C124.25 59.6001 130.33 58.5201 136.89 58.5201C143.53 58.5201 149.61 59.6001 155.13 61.7601C160.73 63.9201 165.57 66.9601 169.65 70.8801C173.81 74.8001 177.05 79.4001 179.37 84.6801C181.69 89.8801 182.85 95.6401 182.85 101.96C182.85 108.2 181.69 114 179.37 119.36C177.05 124.64 173.81 129.24 169.65 133.16C165.57 137 160.73 140 155.13 142.16C149.61 144.32 143.57 145.4 137.01 145.4ZM136.89 128.84C140.65 128.84 144.09 128.2 147.21 126.92C150.41 125.64 153.21 123.8 155.61 121.4C158.01 119 159.85 116.16 161.13 112.88C162.49 109.6 163.17 105.96 163.17 101.96C163.17 97.9601 162.49 94.3201 161.13 91.0401C159.85 87.7601 158.01 84.9201 155.61 82.5201C153.29 80.1201 150.53 78.2801 147.33 77.0001C144.13 75.7201 140.65 75.0801 136.89 75.0801C133.13 75.0801 129.65 75.7201 126.45 77.0001C123.33 78.2801 120.57 80.1201 118.17 82.5201C115.77 84.9201 113.89 87.7601 112.53 91.0401C111.25 94.3201 110.61 97.9601 110.61 101.96C110.61 105.88 111.25 109.52 112.53 112.88C113.89 116.16 115.73 119 118.05 121.4C120.45 123.8 123.25 125.64 126.45 126.92C129.65 128.2 133.13 128.84 136.89 128.84Z" fill="#C0ACEB" fill-opacity="0.31"/>
<path d="M9.95998 289.96V205.96H26.04L75.6 266.44H67.8V205.96H87V289.96H71.04L21.36 229.48H29.16V289.96H9.95998Z" fill="#C0ACEB" fill-opacity="0.31"/>
<path d="M124.274 289.96V221.8H97.394V205.96H170.594V221.8H143.714V289.96H124.274Z" fill="#C0ACEB" fill-opacity="0.31"/>
<path d="M165.795 289.96L203.235 205.96H222.435L259.995 289.96H239.595L208.875 215.8H216.555L185.715 289.96H165.795ZM184.515 271.96L189.675 257.2H232.875L238.155 271.96H184.515Z" fill="#C0ACEB" fill-opacity="0.31"/>
<path d="M27.36 435.96V367.8H0.47998V351.96H73.68V367.8H46.8V435.96H27.36Z" fill="#C0ACEB" fill-opacity="0.31"/>
<path d="M123.768 437.4C117.128 437.4 110.968 436.32 105.288 434.16C99.6878 432 94.8078 428.96 90.6478 425.04C86.5678 421.12 83.3678 416.52 81.0478 411.24C78.8078 405.96 77.6878 400.2 77.6878 393.96C77.6878 387.72 78.8078 381.96 81.0478 376.68C83.3678 371.4 86.6078 366.8 90.7678 362.88C94.9278 358.96 99.8078 355.92 105.408 353.76C111.008 351.6 117.088 350.52 123.648 350.52C130.288 350.52 136.368 351.6 141.888 353.76C147.488 355.92 152.328 358.96 156.408 362.88C160.568 366.8 163.808 371.4 166.128 376.68C168.448 381.88 169.608 387.64 169.608 393.96C169.608 400.2 168.448 406 166.128 411.36C163.808 416.64 160.568 421.24 156.408 425.16C152.328 429 147.488 432 141.888 434.16C136.368 436.32 130.328 437.4 123.768 437.4ZM123.648 420.84C127.408 420.84 130.848 420.2 133.968 418.92C137.168 417.64 139.968 415.8 142.368 413.4C144.768 411 146.608 408.16 147.888 404.88C149.248 401.6 149.928 397.96 149.928 393.96C149.928 389.96 149.248 386.32 147.888 383.04C146.608 379.76 144.768 376.92 142.368 374.52C140.048 372.12 137.288 370.28 134.088 369C130.888 367.72 127.408 367.08 123.648 367.08C119.888 367.08 116.408 367.72 113.208 369C110.088 370.28 107.328 372.12 104.928 374.52C102.528 376.92 100.648 379.76 99.2878 383.04C98.0078 386.32 97.3678 389.96 97.3678 393.96C97.3678 397.88 98.0078 401.52 99.2878 404.88C100.648 408.16 102.488 411 104.808 413.4C107.208 415.8 110.008 417.64 113.208 418.92C116.408 420.2 119.888 420.84 123.648 420.84Z" fill="#C0ACEB" fill-opacity="0.31"/>
<path d="M50.8224 115.44C44.3424 115.44 38.3024 114.4 32.7024 112.32C27.1824 110.16 22.3824 107.12 18.3024 103.2C14.2224 99.2801 11.0224 94.6801 8.70238 89.4001C6.46238 84.1201 5.34237 78.3201 5.34237 72.0001C5.34237 65.6801 6.46238 59.8801 8.70238 54.6001C11.0224 49.3201 14.2224 44.7201 18.3024 40.8001C22.4624 36.8801 27.3024 33.8801 32.8224 31.8001C38.3424 29.6401 44.3824 28.5601 50.9424 28.5601C58.2224 28.5601 64.7824 29.8401 70.6224 32.4001C76.5424 34.8801 81.5024 38.5601 85.5024 43.4401L73.0224 54.9601C70.1424 51.6801 66.9424 49.2401 63.4224 47.6401C59.9024 45.9601 56.0624 45.1201 51.9024 45.1201C47.9824 45.1201 44.3824 45.7601 41.1024 47.0401C37.8224 48.3201 34.9824 50.1601 32.5824 52.5601C30.1824 54.9601 28.3024 57.8001 26.9424 61.0801C25.6624 64.3601 25.0224 68.0001 25.0224 72.0001C25.0224 76.0001 25.6624 79.6401 26.9424 82.9201C28.3024 86.2001 30.1824 89.0401 32.5824 91.4401C34.9824 93.8401 37.8224 95.6801 41.1024 96.9601C44.3824 98.2401 47.9824 98.8801 51.9024 98.8801C56.0624 98.8801 59.9024 98.0801 63.4224 96.4801C66.9424 94.8001 70.1424 92.2801 73.0224 88.9201L85.5024 100.44C81.5024 105.32 76.5424 109.04 70.6224 111.6C64.7824 114.16 58.1824 115.44 50.8224 115.44Z" fill="#C0ACEB" fill-opacity="0.71"/>
<path d="M137.672 115.44C131.032 115.44 124.872 114.36 119.192 112.2C113.592 110.04 108.712 107 104.552 103.08C100.472 99.1601 97.2724 94.5601 94.9524 89.2801C92.7124 84.0001 91.5924 78.2401 91.5924 72.0001C91.5924 65.7601 92.7124 60.0001 94.9524 54.7201C97.2724 49.4401 100.512 44.8401 104.672 40.9201C108.832 37.0001 113.712 33.9601 119.312 31.8001C124.912 29.6401 130.992 28.5601 137.552 28.5601C144.192 28.5601 150.272 29.6401 155.792 31.8001C161.392 33.9601 166.232 37.0001 170.312 40.9201C174.472 44.8401 177.712 49.4401 180.032 54.7201C182.352 59.9201 183.512 65.6801 183.512 72.0001C183.512 78.2401 182.352 84.0401 180.032 89.4001C177.712 94.6801 174.472 99.2801 170.312 103.2C166.232 107.04 161.392 110.04 155.792 112.2C150.272 114.36 144.232 115.44 137.672 115.44ZM137.552 98.8801C141.312 98.8801 144.752 98.2401 147.872 96.9601C151.072 95.6801 153.872 93.8401 156.272 91.4401C158.672 89.0401 160.512 86.2001 161.792 82.9201C163.152 79.6401 163.832 76.0001 163.832 72.0001C163.832 68.0001 163.152 64.3601 161.792 61.0801C160.512 57.8001 158.672 54.9601 156.272 52.5601C153.952 50.1601 151.192 48.3201 147.992 47.0401C144.792 45.7601 141.312 45.1201 137.552 45.1201C133.792 45.1201 130.312 45.7601 127.112 47.0401C123.992 48.3201 121.232 50.1601 118.832 52.5601C116.432 54.9601 114.552 57.8001 113.192 61.0801C111.912 64.3601 111.272 68.0001 111.272 72.0001C111.272 75.9201 111.912 79.5601 113.192 82.9201C114.552 86.2001 116.392 89.0401 118.712 91.4401C121.112 93.8401 123.912 95.6801 127.112 96.9601C130.312 98.2401 133.792 98.8801 137.552 98.8801Z" fill="#C0ACEB" fill-opacity="0.71"/>
<path d="M10.6224 260V176H26.7024L76.2624 236.48H68.4624V176H87.6624V260H71.7024L22.0224 199.52H29.8224V260H10.6224Z" fill="#C0ACEB" fill-opacity="0.71"/>
<path d="M124.936 260V191.84H98.0564V176H171.256V191.84H144.376V260H124.936Z" fill="#C0ACEB" fill-opacity="0.71"/>
<path d="M166.457 260L203.897 176H223.097L260.657 260H240.257L209.537 185.84H217.217L186.377 260H166.457ZM185.177 242L190.337 227.24H233.537L238.817 242H185.177Z" fill="#C0ACEB" fill-opacity="0.71"/>
<path d="M28.0224 406V337.84H1.14237V322H74.3424V337.84H47.4624V406H28.0224Z" fill="#C0ACEB" fill-opacity="0.71"/>
<path d="M124.43 407.44C117.79 407.44 111.63 406.36 105.95 404.2C100.35 402.04 95.4702 399 91.3102 395.08C87.2302 391.16 84.0302 386.56 81.7102 381.28C79.4702 376 78.3502 370.24 78.3502 364C78.3502 357.76 79.4702 352 81.7102 346.72C84.0302 341.44 87.2702 336.84 91.4302 332.92C95.5902 329 100.47 325.96 106.07 323.8C111.67 321.64 117.75 320.56 124.31 320.56C130.95 320.56 137.03 321.64 142.55 323.8C148.15 325.96 152.99 329 157.07 332.92C161.23 336.84 164.47 341.44 166.79 346.72C169.11 351.92 170.27 357.68 170.27 364C170.27 370.24 169.11 376.04 166.79 381.4C164.47 386.68 161.23 391.28 157.07 395.2C152.99 399.04 148.15 402.04 142.55 404.2C137.03 406.36 130.99 407.44 124.43 407.44ZM124.31 390.88C128.07 390.88 131.51 390.24 134.63 388.96C137.83 387.68 140.63 385.84 143.03 383.44C145.43 381.04 147.27 378.2 148.55 374.92C149.91 371.64 150.59 368 150.59 364C150.59 360 149.91 356.36 148.55 353.08C147.27 349.8 145.43 346.96 143.03 344.56C140.71 342.16 137.95 340.32 134.75 339.04C131.55 337.76 128.07 337.12 124.31 337.12C120.55 337.12 117.07 337.76 113.87 339.04C110.75 340.32 107.99 342.16 105.59 344.56C103.19 346.96 101.31 349.8 99.9502 353.08C98.6702 356.36 98.0302 360 98.0302 364C98.0302 367.92 98.6702 371.56 99.9502 374.92C101.31 378.2 103.15 381.04 105.47 383.44C107.87 385.84 110.67 387.68 113.87 388.96C117.07 390.24 120.55 390.88 124.31 390.88Z" fill="#C0ACEB" fill-opacity="0.71"/>
<path d="M41.4231 84.4801C39.2631 84.4801 37.2498 84.1334 35.3831 83.4401C33.5431 82.7201 31.9431 81.7067 30.5831 80.4001C29.2231 79.0934 28.1564 77.5601 27.3831 75.8001C26.6364 74.0401 26.2631 72.1067 26.2631 70.0001C26.2631 67.8934 26.6364 65.9601 27.3831 64.2001C28.1564 62.4401 29.2231 60.9067 30.5831 59.6001C31.9698 58.2934 33.5831 57.2934 35.4231 56.6001C37.2631 55.8801 39.2764 55.5201 41.4631 55.5201C43.8898 55.5201 46.0764 55.9467 48.0231 56.8001C49.9964 57.6267 51.6498 58.8534 52.9831 60.4801L48.8231 64.3201C47.8631 63.2267 46.7964 62.4134 45.6231 61.8801C44.4498 61.3201 43.1698 61.0401 41.7831 61.0401C40.4764 61.0401 39.2764 61.2534 38.1831 61.6801C37.0898 62.1067 36.1431 62.7201 35.3431 63.5201C34.5431 64.3201 33.9164 65.2667 33.4631 66.3601C33.0364 67.4534 32.8231 68.6667 32.8231 70.0001C32.8231 71.3334 33.0364 72.5467 33.4631 73.6401C33.9164 74.7334 34.5431 75.6801 35.3431 76.4801C36.1431 77.2801 37.0898 77.8934 38.1831 78.3201C39.2764 78.7467 40.4764 78.9601 41.7831 78.9601C43.1698 78.9601 44.4498 78.6934 45.6231 78.1601C46.7964 77.6001 47.8631 76.7601 48.8231 75.6401L52.9831 79.4801C51.6498 81.1067 49.9964 82.3467 48.0231 83.2001C46.0764 84.0534 43.8764 84.4801 41.4231 84.4801Z" fill="white"/>
<path d="M39.0145 133.32C36.7212 133.32 34.6812 132.84 32.8945 131.88C31.1345 130.92 29.7345 129.613 28.6945 127.96C27.6812 126.28 27.1745 124.373 27.1745 122.24C27.1745 120.08 27.6812 118.173 28.6945 116.52C29.7345 114.84 31.1345 113.533 32.8945 112.6C34.6812 111.64 36.7212 111.16 39.0145 111.16C41.2812 111.16 43.3078 111.64 45.0945 112.6C46.8812 113.533 48.2812 114.827 49.2945 116.48C50.3078 118.133 50.8145 120.053 50.8145 122.24C50.8145 124.373 50.3078 126.28 49.2945 127.96C48.2812 129.613 46.8812 130.92 45.0945 131.88C43.3078 132.84 41.2812 133.32 39.0145 133.32ZM39.0145 128.2C40.0545 128.2 40.9878 127.96 41.8145 127.48C42.6412 127 43.2945 126.32 43.7745 125.44C44.2545 124.533 44.4945 123.467 44.4945 122.24C44.4945 120.987 44.2545 119.92 43.7745 119.04C43.2945 118.16 42.6412 117.48 41.8145 117C40.9878 116.52 40.0545 116.28 39.0145 116.28C37.9745 116.28 37.0412 116.52 36.2145 117C35.3878 117.48 34.7212 118.16 34.2145 119.04C33.7345 119.92 33.4945 120.987 33.4945 122.24C33.4945 123.467 33.7345 124.533 34.2145 125.44C34.7212 126.32 35.3878 127 36.2145 127.48C37.0412 127.96 37.9745 128.2 39.0145 128.2Z" fill="white"/>
<path d="M41.1319 160.16C42.8385 160.16 44.3585 160.507 45.6919 161.2C47.0519 161.867 48.1185 162.907 48.8919 164.32C49.6652 165.707 50.0519 167.493 50.0519 169.68V182H43.8119V170.64C43.8119 168.907 43.4252 167.627 42.6519 166.8C41.9052 165.973 40.8385 165.56 39.4519 165.56C38.4652 165.56 37.5719 165.773 36.7719 166.2C35.9985 166.6 35.3852 167.227 34.9319 168.08C34.5052 168.933 34.2919 170.027 34.2919 171.36V182H28.0519V160.48H34.0119V166.44L32.8919 164.64C33.6652 163.2 34.7719 162.093 36.2119 161.32C37.6519 160.547 39.2919 160.16 41.1319 160.16Z" fill="white"/>
<path d="M41.9886 231.32C39.4552 231.32 37.4819 230.68 36.0686 229.4C34.6552 228.093 33.9486 226.16 33.9486 223.6V204.72H40.1886V223.52C40.1886 224.427 40.4286 225.133 40.9086 225.64C41.3886 226.12 42.0419 226.36 42.8686 226.36C43.8552 226.36 44.6952 226.093 45.3886 225.56L47.0686 229.96C46.4286 230.413 45.6552 230.76 44.7486 231C43.8686 231.213 42.9486 231.32 41.9886 231.32ZM30.6286 214.76V209.96H45.5486V214.76H30.6286Z" fill="white"/>
<path d="M42.7362 280V275.8L42.3362 274.88V267.36C42.3362 266.027 41.9229 264.987 41.0962 264.24C40.2962 263.493 39.0562 263.12 37.3762 263.12C36.2296 263.12 35.0962 263.307 33.9762 263.68C32.8829 264.027 31.9496 264.507 31.1762 265.12L28.9362 260.76C30.1096 259.933 31.5229 259.293 33.1762 258.84C34.8296 258.387 36.5096 258.16 38.2162 258.16C41.4962 258.16 44.0429 258.933 45.8562 260.48C47.6696 262.027 48.5762 264.44 48.5762 267.72V280H42.7362ZM36.1762 280.32C34.4962 280.32 33.0562 280.04 31.8562 279.48C30.6562 278.893 29.7362 278.107 29.0962 277.12C28.4562 276.133 28.1362 275.027 28.1362 273.8C28.1362 272.52 28.4429 271.4 29.0562 270.44C29.6962 269.48 30.6962 268.733 32.0562 268.2C33.4162 267.64 35.1896 267.36 37.3762 267.36H43.0962V271H38.0562C36.5896 271 35.5762 271.24 35.0162 271.72C34.4829 272.2 34.2162 272.8 34.2162 273.52C34.2162 274.32 34.5229 274.96 35.1362 275.44C35.7762 275.893 36.6429 276.12 37.7362 276.12C38.7762 276.12 39.7096 275.88 40.5362 275.4C41.3629 274.893 41.9629 274.16 42.3362 273.2L43.2962 276.08C42.8429 277.467 42.0162 278.52 40.8162 279.24C39.6162 279.96 38.0696 280.32 36.1762 280.32Z" fill="white"/>
<path d="M42.3206 329.32C39.7873 329.32 37.8139 328.68 36.4006 327.4C34.9873 326.093 34.2806 324.16 34.2806 321.6V302.72H40.5206V321.52C40.5206 322.427 40.7606 323.133 41.2406 323.64C41.7206 324.12 42.3739 324.36 43.2006 324.36C44.1873 324.36 45.0273 324.093 45.7206 323.56L47.4006 327.96C46.7606 328.413 45.9873 328.76 45.0806 329C44.2006 329.213 43.2806 329.32 42.3206 329.32ZM30.9606 312.76V307.96H45.8806V312.76H30.9606Z" fill="white"/>
<path d="M39.0145 378.32C36.7212 378.32 34.6812 377.84 32.8945 376.88C31.1345 375.92 29.7345 374.613 28.6945 372.96C27.6812 371.28 27.1745 369.373 27.1745 367.24C27.1745 365.08 27.6812 363.173 28.6945 361.52C29.7345 359.84 31.1345 358.533 32.8945 357.6C34.6812 356.64 36.7212 356.16 39.0145 356.16C41.2812 356.16 43.3078 356.64 45.0945 357.6C46.8812 358.533 48.2812 359.827 49.2945 361.48C50.3078 363.133 50.8145 365.053 50.8145 367.24C50.8145 369.373 50.3078 371.28 49.2945 372.96C48.2812 374.613 46.8812 375.92 45.0945 376.88C43.3078 377.84 41.2812 378.32 39.0145 378.32ZM39.0145 373.2C40.0545 373.2 40.9878 372.96 41.8145 372.48C42.6412 372 43.2945 371.32 43.7745 370.44C44.2545 369.533 44.4945 368.467 44.4945 367.24C44.4945 365.987 44.2545 364.92 43.7745 364.04C43.2945 363.16 42.6412 362.48 41.8145 362C40.9878 361.52 40.0545 361.28 39.0145 361.28C37.9745 361.28 37.0412 361.52 36.2145 362C35.3878 362.48 34.7212 363.16 34.2145 364.04C33.7345 364.92 33.4945 365.987 33.4945 367.24C33.4945 368.467 33.7345 369.533 34.2145 370.44C34.7212 371.32 35.3878 372 36.2145 372.48C37.0412 372.96 37.9745 373.2 39.0145 373.2Z" fill="white"/>
</svg>
