<svg width="117" height="114" viewBox="0 0 117 114" fill="none" xmlns="http://www.w3.org/2000/svg">
<rect width="117" height="114" rx="8" fill="#A599BF"/>
<g clip-path="url(#clip0_55_70)">
<path d="M25.6335 42.0333C24.3905 41.5384 23.3137 41.1565 22.4338 40.8687C22.2492 39.6612 22.1138 38.4509 22.0307 37.2353C21.963 36.2348 22.0061 35.2478 22.1415 34.2795C22.8891 34.3871 23.9475 34.5485 25.2643 34.7717C25.1351 36.146 25.1228 37.593 25.2643 39.1206C25.3535 40.0969 25.4766 41.0678 25.6335 42.0333ZM37.9279 48.3778C34.7835 46.3606 31.8299 44.7981 29.264 43.5986C28.744 40.8042 28.5225 38.034 28.7163 35.3984C31.0884 35.8556 33.8943 36.4473 36.9802 37.1976C36.7772 40.7235 37.1556 44.5157 37.9279 48.3778ZM70.2206 49.8489C70.1898 50.1528 70.1498 50.4621 70.1129 50.7714C65.8178 52.732 61.5413 55.3758 57.6985 58.9393C56.4555 60.0904 55.3233 61.2469 54.2865 62.398C53.1235 61.1124 51.8836 59.8107 50.5668 58.5036C49.9761 57.92 49.3854 57.3525 48.7885 56.7985C47.8009 51.0161 47.1732 45.3118 47.0563 39.9651C54.7018 42.3372 62.9565 45.5565 70.2206 49.8489Z" fill="#2AC64B"/>
<path d="M26.5719 29.1534C25.9289 30.8586 25.4612 32.7304 25.2643 34.7717C23.9475 34.5485 22.8891 34.3872 22.1415 34.2796C22.2245 33.6691 22.3507 33.0666 22.5076 32.4723C23.446 31.5901 24.8028 30.4256 26.5719 29.1534Z" fill="#008A5A"/>
<path d="M41.5337 21.7843C39.2723 25.4097 37.4602 30.2965 37.0017 36.8158C36.9956 36.9422 36.9864 37.0713 36.9802 37.1977C33.8943 36.4473 31.0915 35.8583 28.7194 35.3984C28.7224 35.3097 28.7317 35.2263 28.7378 35.1375C29.0332 31.7192 30.1869 28.5833 31.9314 25.7997C34.6296 24.3447 37.8263 22.93 41.5337 21.7843Z" fill="#009550"/>
<path d="M70.2206 49.8489C62.9566 45.5565 54.7019 42.3372 47.0564 39.9651C46.9087 33.5964 47.4748 27.7414 48.9824 22.8896C49.0223 22.7551 49.0654 22.6234 49.1085 22.4943C55.1726 25.6275 63.0735 29.1211 70.5744 30.6541C71.2297 36.4365 71.0328 43.0069 70.2206 49.8489Z" fill="#00983E"/>
<path d="M95.9692 37.2353C95.7846 39.9248 95.3446 42.5873 94.6616 45.2499C93.797 45.2795 92.8002 45.3279 91.6957 45.4113C92.1818 43.3592 92.5387 41.2587 92.7356 39.1206C93.394 31.9236 90.7327 26.4424 87.656 22.6153C88.5575 22.8385 89.4128 23.0591 90.2097 23.2742C93.6648 27.104 96.3322 32.0258 95.9692 37.2353ZM88.2806 45.7582C85.8716 46.0594 83.1518 46.5301 80.2812 47.2482C80.9397 43.6362 81.2258 40.1076 80.995 36.8157C80.472 29.3094 78.146 23.9708 75.4109 20.2217C77.983 20.5928 80.4228 21.0312 82.6749 21.4911C86.2654 25.1972 88.8067 29.8231 89.262 35.1402C89.5512 38.5289 89.1359 42.1436 88.2806 45.7582Z" fill="#009A37"/>
<path d="M70.5744 30.6542C63.0735 29.1185 55.1726 25.6249 49.1085 22.4944C49.4285 21.5235 49.7854 20.6413 50.1792 19.8399C51.2899 19.6731 52.4344 19.5386 53.6128 19.4338C58.3508 19.0115 63.0827 19.0518 67.587 19.3746C68.1192 20.402 68.6054 21.5665 69.0176 22.8897C69.7499 25.2565 70.2637 27.8626 70.5744 30.6542Z" fill="#00863F"/>
<path d="M38.1924 15.8782C37.9432 16.0126 29.8854 20.3481 26.5718 29.1507C24.8027 30.4228 23.4459 31.5901 22.5106 32.4695C24.7012 24.1644 33.4451 17.3816 38.1924 15.8782ZM43.2904 19.3046C42.6843 20.0576 42.0936 20.8833 41.5337 21.7843C37.8293 22.93 34.6296 24.3446 31.9314 25.8023C33.9958 22.4916 36.8971 19.6703 40.1676 17.4327C40.9429 17.9168 42.0044 18.5596 43.2904 19.3046Z" fill="#06CBF6"/>
<path d="M90.2097 23.2743C89.4129 23.0591 88.5575 22.8386 87.6561 22.6153C84.0195 18.0917 79.8013 15.8755 79.8013 15.8755C82.598 16.7604 86.7915 19.4848 90.2097 23.2743ZM82.675 21.4911C80.4259 21.0312 77.9861 20.5929 75.414 20.2217C70.799 13.8853 65.0026 12.0861 64.7195 12.0027C70.9313 13.0919 77.78 16.4403 82.675 21.4911ZM67.587 19.3745C63.0827 19.0491 58.3508 19.0115 53.6128 19.4337C52.4344 19.5386 51.293 19.6731 50.1792 19.8398C53.5082 12.9817 58.9231 12 58.9231 12H59.0769C59.0769 12 64.2457 12.9359 67.587 19.3745ZM53.2836 12.0027C53.0159 12.0834 47.7732 13.7105 43.2905 19.3046C42.0076 18.5623 40.943 17.9195 40.1677 17.4354C44.2535 14.6438 48.9239 12.7665 53.2836 12.0027Z" fill="url(#paint0_linear_55_70)"/>
<path d="M59 101H64.5656L66.6239 93.1467H51.376L53.4343 101H59Z" fill="#666565"/>
<path d="M37.9833 65.8486C39.054 67.7824 40.0754 69.509 40.9553 70.9506C42.4629 73.4168 43.8966 75.5146 45.3765 77.4241C45.8042 76.117 46.3364 74.7373 47.001 73.3065C45.8534 71.007 44.7027 68.5354 43.6074 65.9616C41.2261 60.3702 39.1124 54.2866 37.931 48.3778C34.7866 46.3634 31.833 44.7981 29.2671 43.6013C30.7347 51.5541 34.602 59.7435 37.9833 65.8486Z" fill="url(#paint1_linear_55_70)"/>
<path d="M32.956 65.7491C33.5621 66.6743 34.1929 67.6048 34.8451 68.5434C37.9002 72.9219 41.4292 76.9669 44.5705 80.2534C44.6628 79.8553 44.7704 79.4439 44.8904 79.027C43.6198 77.4994 42.3799 75.9502 41.3123 74.5114C39.7832 72.4539 37.571 69.4713 35.2635 65.8002C31.3131 59.5041 27.095 51.1802 25.6305 42.036C24.3875 41.5411 23.3107 41.1592 22.4338 40.8715C23.6983 49.0663 27.2857 57.1132 32.956 65.7491Z" fill="url(#paint2_linear_55_70)"/>
<path d="M49.3393 59.8511C49.7362 61.922 50.2008 64.0252 50.7023 66.1042C50.7515 66.3032 50.7977 66.4995 50.8469 66.6985C51.8499 65.2812 52.9913 63.8423 54.2835 62.4007C53.0836 61.0748 51.8437 59.7758 50.5638 58.5037C49.9731 57.9201 49.3824 57.3526 48.7855 56.8013C48.9609 57.8152 49.1424 58.8318 49.3393 59.8511Z" fill="url(#paint3_linear_55_70)"/>
<path d="M91.6927 45.4114C90.2774 51.4196 87.7853 56.9842 85.1333 61.7445C85.6686 62.2152 86.1916 62.6858 86.6993 63.1484C90.4774 57.0084 93.1634 51.1346 94.6617 45.25C93.7941 45.2796 92.8003 45.3253 91.6927 45.4114ZM80.2844 47.2483C79.7645 50.1179 79.0168 53.0387 78.1123 55.9353C79.6753 57.167 81.3828 58.5467 83.0627 59.9614C85.164 55.5776 87.1269 50.6639 88.2838 45.7583C85.8717 46.0622 83.155 46.5329 80.2844 47.2483Z" fill="#97CC1A"/>
<path d="M57.6985 58.9367C56.4555 60.0878 55.3233 61.2443 54.2865 62.3981C58.8061 67.3897 62.1658 72.1366 64.5995 76.1063C65.4825 73.121 66.3993 69.8156 67.2208 66.4296C67.7531 64.2457 68.2423 62.0323 68.6607 59.8511C69.2483 56.8067 69.7375 53.7649 70.1129 50.7715C65.8148 52.7321 61.5413 55.3732 57.6985 58.9367ZM85.1332 61.7445C85.0316 61.9274 84.9301 62.1076 84.8286 62.2878C81.8288 67.578 78.6752 71.8274 76.6846 74.5088C74.3864 77.6043 71.2882 81.2297 68.833 84.0026C68.9222 84.207 69.0084 84.3979 69.0883 84.5808C72.8911 80.9608 78.5583 75.1273 83.1518 68.5435C84.3055 66.8895 85.3824 65.2624 86.3884 63.6514C86.493 63.4846 86.5977 63.3179 86.6992 63.1484C86.1915 62.6832 85.6685 62.2152 85.1332 61.7445ZM78.1122 55.9353L77.9922 56.3118C75.0786 65.5071 70.6421 74.4146 67.1316 80.552C67.5131 81.2808 67.8608 81.9613 68.1653 82.5852C71.4082 79.2126 74.0787 75.797 77.0446 70.9506C78.6722 68.2826 80.7828 64.6465 82.798 60.5101L83.0626 59.9614C81.3827 58.5467 79.6752 57.167 78.1122 55.9353Z" fill="url(#paint4_linear_55_70)"/>
<path d="M61.9259 88.5559C64.2949 86.4097 66.3225 84.5055 68.1654 82.5852C67.8608 81.9613 67.5162 81.2835 67.1316 80.552C64.6457 84.9036 62.6182 87.862 61.9259 88.5559Z" fill="url(#paint5_linear_55_70)"/>
<path d="M64.8364 88.4267C64.9626 88.3192 66.6424 86.9072 69.0915 84.5808C69.0084 84.3979 68.9253 84.207 68.8361 84.0026C66.6394 86.4876 64.9656 88.2923 64.8364 88.4267Z" fill="url(#paint6_linear_55_70)"/>
<path d="M50.8468 66.6957C53.6466 78.1448 57.4862 88.6445 57.4862 88.6445H60.5137C60.5137 88.6445 62.4612 83.3113 64.5995 76.1035C62.1659 72.1338 58.8061 67.3896 54.2865 62.3953C52.9912 63.8395 51.8498 65.2784 50.8468 66.6957Z" fill="url(#paint7_linear_55_70)"/>
<path d="M45.3734 77.4241C48.4347 81.3964 51.659 84.5566 56.071 88.5558C55.0434 87.5284 51.0622 81.4798 46.9979 73.3092C46.3333 74.7373 45.8011 76.117 45.3734 77.4241Z" fill="url(#paint8_linear_55_70)"/>
<path d="M44.5704 80.2507C49.1885 85.0837 52.9728 88.2653 53.1666 88.4267C52.9636 88.2062 48.7947 83.7255 44.8904 79.0243C44.7735 79.4412 44.6658 79.8526 44.5704 80.2507Z" fill="url(#paint9_linear_55_70)"/>
</g>
<defs>
<linearGradient id="paint0_linear_55_70" x1="42.4054" y1="16.7097" x2="87.2503" y2="18.2645" gradientUnits="userSpaceOnUse">
<stop stop-color="#0288F7"/>
<stop offset="1" stop-color="#2EE2BD"/>
</linearGradient>
<linearGradient id="paint1_linear_55_70" x1="45.8383" y1="74.509" x2="37.1176" y2="49.8389" gradientUnits="userSpaceOnUse">
<stop stop-color="#CB1918"/>
<stop offset="0.388" stop-color="#A2183D"/>
<stop offset="0.749" stop-color="#902869"/>
<stop offset="1" stop-color="#73358A"/>
</linearGradient>
<linearGradient id="paint2_linear_55_70" x1="40.2624" y1="76.4793" x2="31.5415" y2="51.8089" gradientUnits="userSpaceOnUse">
<stop stop-color="#CB1918"/>
<stop offset="0.388" stop-color="#A2183D"/>
<stop offset="0.749" stop-color="#902869"/>
<stop offset="1" stop-color="#73358A"/>
</linearGradient>
<linearGradient id="paint3_linear_55_70" x1="55.5817" y1="71.064" x2="46.8608" y2="46.3933" gradientUnits="userSpaceOnUse">
<stop stop-color="#CB1918"/>
<stop offset="0.388" stop-color="#A2183D"/>
<stop offset="0.749" stop-color="#902869"/>
<stop offset="1" stop-color="#73358A"/>
</linearGradient>
<linearGradient id="paint4_linear_55_70" x1="78.2588" y1="57.5632" x2="64.5485" y2="74.695" gradientUnits="userSpaceOnUse">
<stop stop-color="#ADD816"/>
<stop offset="1" stop-color="#DBD704"/>
</linearGradient>
<linearGradient id="paint5_linear_55_70" x1="66.1499" y1="86.9399" x2="55.0532" y2="65.5326" gradientUnits="userSpaceOnUse">
<stop stop-color="#E1282B"/>
<stop offset="0.388" stop-color="#E3402A"/>
<stop offset="0.702" stop-color="#E76226"/>
<stop offset="1" stop-color="#F19A0A"/>
</linearGradient>
<linearGradient id="paint6_linear_55_70" x1="67.0207" y1="86.4885" x2="55.924" y2="65.0811" gradientUnits="userSpaceOnUse">
<stop stop-color="#E1282B"/>
<stop offset="0.388" stop-color="#E3402A"/>
<stop offset="0.702" stop-color="#E76226"/>
<stop offset="1" stop-color="#F19A0A"/>
</linearGradient>
<linearGradient id="paint7_linear_55_70" x1="64.7028" y1="87.6889" x2="53.6064" y2="66.282" gradientUnits="userSpaceOnUse">
<stop stop-color="#E1282B"/>
<stop offset="0.388" stop-color="#E3402A"/>
<stop offset="0.702" stop-color="#E76226"/>
<stop offset="1" stop-color="#F19A0A"/>
</linearGradient>
<linearGradient id="paint8_linear_55_70" x1="57.1895" y1="91.5839" x2="46.0928" y2="70.1765" gradientUnits="userSpaceOnUse">
<stop stop-color="#E1282B"/>
<stop offset="0.388" stop-color="#E3402A"/>
<stop offset="0.702" stop-color="#E76226"/>
<stop offset="1" stop-color="#F19A0A"/>
</linearGradient>
<linearGradient id="paint9_linear_55_70" x1="54.6697" y1="92.8897" x2="43.5733" y2="71.4827" gradientUnits="userSpaceOnUse">
<stop stop-color="#E1282B"/>
<stop offset="0.388" stop-color="#E3402A"/>
<stop offset="0.702" stop-color="#E76226"/>
<stop offset="1" stop-color="#F19A0A"/>
</linearGradient>
<clipPath id="clip0_55_70">
<rect width="74" height="89" fill="white" transform="translate(22 12)"/>
</clipPath>
</defs>
</svg>
