<svg width="85" height="79" viewBox="0 0 85 79" fill="none" xmlns="http://www.w3.org/2000/svg">
<ellipse cx="42.5" cy="39.5" rx="42.5" ry="39.5" fill="url(#paint0_linear_57_86)" fill-opacity="0.8"/>
<path d="M35.52 34L31.76 37.92V45H25.32V17H31.76V30.08L44.16 17H51.36L39.76 29.48L52.04 45H44.48L35.52 34Z" fill="white"/>
<path d="M54.7691 32.979C52.5291 32.979 50.8357 33.4723 49.6891 34.459C48.5424 35.419 47.9691 36.8723 47.9691 38.819V40.539H59.4891V45.739H47.9691V55.939H41.4891V38.859C41.4891 35.259 42.6091 32.459 44.8491 30.459C47.1157 28.459 50.2757 27.459 54.3291 27.459C55.9291 27.459 57.4357 27.6323 58.8491 27.979C60.2624 28.299 61.4891 28.779 62.5291 29.419L60.5291 34.539C58.9291 33.499 57.0091 32.979 54.7691 32.979Z" fill="white"/>
<path d="M35.52 38L31.76 41.92V49H25.32V21H31.76V34.08L44.16 21H51.36L39.76 33.48L52.04 49H44.48L35.52 38Z" fill="white" fill-opacity="0.54"/>
<path d="M54.7691 36.979C52.5291 36.979 50.8357 37.4723 49.6891 38.459C48.5424 39.419 47.9691 40.8723 47.9691 42.819V44.539H59.4891V49.739H47.9691V59.939H41.4891V42.859C41.4891 39.259 42.6091 36.459 44.8491 34.459C47.1157 32.459 50.2757 31.459 54.3291 31.459C55.9291 31.459 57.4357 31.6323 58.8491 31.979C60.2624 32.299 61.4891 32.779 62.5291 33.419L60.5291 38.539C58.9291 37.499 57.0091 36.979 54.7691 36.979Z" fill="white" fill-opacity="0.54"/>
<defs>
<linearGradient id="paint0_linear_57_86" x1="42.5" y1="0" x2="42.5" y2="79" gradientUnits="userSpaceOnUse">
<stop stop-color="#B92F84"/>
<stop offset="0.5" stop-color="#9A5EAF"/>
<stop offset="1" stop-color="#67A8F4"/>
</linearGradient>
</defs>
</svg>
