<svg width="300" height="468" viewBox="0 0 300 468" fill="none" xmlns="http://www.w3.org/2000/svg">
<path d="M76.16 117.44C69.68 117.44 63.64 116.4 58.04 114.32C52.52 112.16 47.72 109.12 43.64 105.2C39.56 101.28 36.36 96.68 34.04 91.4C31.8 86.12 30.68 80.32 30.68 74C30.68 67.68 31.8 61.88 34.04 56.6C36.36 51.32 39.56 46.72 43.64 42.8C47.8 38.88 52.64 35.88 58.16 33.8C63.68 31.64 69.72 30.56 76.28 30.56C83.56 30.56 90.12 31.84 95.96 34.4C101.88 36.88 106.84 40.56 110.84 45.44L98.36 56.96C95.48 53.68 92.28 51.24 88.76 49.64C85.24 47.96 81.4 47.12 77.24 47.12C73.32 47.12 69.72 47.76 66.44 49.04C63.16 50.32 60.32 52.16 57.92 54.56C55.52 56.96 53.64 59.8 52.28 63.08C51 66.36 50.36 70 50.36 74C50.36 78 51 81.64 52.28 84.92C53.64 88.2 55.52 91.04 57.92 93.44C60.32 95.84 63.16 97.68 66.44 98.96C69.72 100.24 73.32 100.88 77.24 100.88C81.4 100.88 85.24 100.08 88.76 98.48C92.28 96.8 95.48 94.28 98.36 90.92L110.84 102.44C106.84 107.32 101.88 111.04 95.96 113.6C90.12 116.16 83.52 117.44 76.16 117.44ZM163.01 117.44C156.37 117.44 150.21 116.36 144.53 114.2C138.93 112.04 134.05 109 129.89 105.08C125.81 101.16 122.61 96.56 120.29 91.28C118.05 86 116.93 80.24 116.93 74C116.93 67.76 118.05 62 120.29 56.72C122.61 51.44 125.85 46.84 130.01 42.92C134.17 39 139.05 35.96 144.65 33.8C150.25 31.64 156.33 30.56 162.89 30.56C169.53 30.56 175.61 31.64 181.13 33.8C186.73 35.96 191.57 39 195.65 42.92C199.81 46.84 203.05 51.44 205.37 56.72C207.69 61.92 208.85 67.68 208.85 74C208.85 80.24 207.69 86.04 205.37 91.4C203.05 96.68 199.81 101.28 195.65 105.2C191.57 109.04 186.73 112.04 181.13 114.2C175.61 116.36 169.57 117.44 163.01 117.44ZM162.89 100.88C166.65 100.88 170.09 100.24 173.21 98.96C176.41 97.68 179.21 95.84 181.61 93.44C184.01 91.04 185.85 88.2 187.13 84.92C188.49 81.64 189.17 78 189.17 74C189.17 70 188.49 66.36 187.13 63.08C185.85 59.8 184.01 56.96 181.61 54.56C179.29 52.16 176.53 50.32 173.33 49.04C170.13 47.76 166.65 47.12 162.89 47.12C159.13 47.12 155.65 47.76 152.45 49.04C149.33 50.32 146.57 52.16 144.17 54.56C141.77 56.96 139.89 59.8 138.53 63.08C137.25 66.36 136.61 70 136.61 74C136.61 77.92 137.25 81.56 138.53 84.92C139.89 88.2 141.73 91.04 144.05 93.44C146.45 95.84 149.25 97.68 152.45 98.96C155.65 100.24 159.13 100.88 162.89 100.88ZM35.96 262V178H52.04L101.6 238.48H93.8V178H113V262H97.04L47.36 201.52H55.16V262H35.96ZM150.274 262V193.84H123.394V178H196.594V193.84H169.714V262H150.274ZM191.795 262L229.235 178H248.435L285.995 262H265.595L234.875 187.84H242.555L211.715 262H191.795ZM210.515 244L215.675 229.24H258.875L264.155 244H210.515ZM53.36 408V339.84H26.48V324H99.68V339.84H72.8V408H53.36ZM149.768 409.44C143.128 409.44 136.968 408.36 131.288 406.2C125.688 404.04 120.808 401 116.648 397.08C112.568 393.16 109.368 388.56 107.048 383.28C104.808 378 103.688 372.24 103.688 366C103.688 359.76 104.808 354 107.048 348.72C109.368 343.44 112.608 338.84 116.768 334.92C120.928 331 125.808 327.96 131.408 325.8C137.008 323.64 143.088 322.56 149.648 322.56C156.288 322.56 162.368 323.64 167.888 325.8C173.488 327.96 178.328 331 182.408 334.92C186.568 338.84 189.808 343.44 192.128 348.72C194.448 353.92 195.608 359.68 195.608 366C195.608 372.24 194.448 378.04 192.128 383.4C189.808 388.68 186.568 393.28 182.408 397.2C178.328 401.04 173.488 404.04 167.888 406.2C162.368 408.36 156.328 409.44 149.768 409.44ZM149.648 392.88C153.408 392.88 156.848 392.24 159.968 390.96C163.168 389.68 165.968 387.84 168.368 385.44C170.768 383.04 172.608 380.2 173.888 376.92C175.248 373.64 175.928 370 175.928 366C175.928 362 175.248 358.36 173.888 355.08C172.608 351.8 170.768 348.96 168.368 346.56C166.048 344.16 163.288 342.32 160.088 341.04C156.888 339.76 153.408 339.12 149.648 339.12C145.888 339.12 142.408 339.76 139.208 341.04C136.088 342.32 133.328 344.16 130.928 346.56C128.528 348.96 126.648 351.8 125.288 355.08C124.008 358.36 123.368 362 123.368 366C123.368 369.92 124.008 373.56 125.288 376.92C126.648 380.2 128.488 383.04 130.808 385.44C133.208 387.84 136.008 389.68 139.208 390.96C142.408 392.24 145.888 392.88 149.648 392.88Z" fill="#C0ACEB" fill-opacity="0.31"/>
<path d="M76.16 175.4C69.68 175.4 63.64 174.36 58.04 172.28C52.52 170.12 47.72 167.08 43.64 163.16C39.56 159.24 36.36 154.64 34.04 149.36C31.8 144.08 30.68 138.28 30.68 131.96C30.68 125.64 31.8 119.84 34.04 114.56C36.36 109.28 39.56 104.68 43.64 100.76C47.8 96.84 52.64 93.84 58.16 91.76C63.68 89.6 69.72 88.52 76.28 88.52C83.56 88.52 90.12 89.8 95.96 92.36C101.88 94.84 106.84 98.52 110.84 103.4L98.36 114.92C95.48 111.64 92.28 109.2 88.76 107.6C85.24 105.92 81.4 105.08 77.24 105.08C73.32 105.08 69.72 105.72 66.44 107C63.16 108.28 60.32 110.12 57.92 112.52C55.52 114.92 53.64 117.76 52.28 121.04C51 124.32 50.36 127.96 50.36 131.96C50.36 135.96 51 139.6 52.28 142.88C53.64 146.16 55.52 149 57.92 151.4C60.32 153.8 63.16 155.64 66.44 156.92C69.72 158.2 73.32 158.84 77.24 158.84C81.4 158.84 85.24 158.04 88.76 156.44C92.28 154.76 95.48 152.24 98.36 148.88L110.84 160.4C106.84 165.28 101.88 169 95.96 171.56C90.12 174.12 83.52 175.4 76.16 175.4ZM163.01 175.4C156.37 175.4 150.21 174.32 144.53 172.16C138.93 170 134.05 166.96 129.89 163.04C125.81 159.12 122.61 154.52 120.29 149.24C118.05 143.96 116.93 138.2 116.93 131.96C116.93 125.72 118.05 119.96 120.29 114.68C122.61 109.4 125.85 104.8 130.01 100.88C134.17 96.96 139.05 93.92 144.65 91.76C150.25 89.6 156.33 88.52 162.89 88.52C169.53 88.52 175.61 89.6 181.13 91.76C186.73 93.92 191.57 96.96 195.65 100.88C199.81 104.8 203.05 109.4 205.37 114.68C207.69 119.88 208.85 125.64 208.85 131.96C208.85 138.2 207.69 144 205.37 149.36C203.05 154.64 199.81 159.24 195.65 163.16C191.57 167 186.73 170 181.13 172.16C175.61 174.32 169.57 175.4 163.01 175.4ZM162.89 158.84C166.65 158.84 170.09 158.2 173.21 156.92C176.41 155.64 179.21 153.8 181.61 151.4C184.01 149 185.85 146.16 187.13 142.88C188.49 139.6 189.17 135.96 189.17 131.96C189.17 127.96 188.49 124.32 187.13 121.04C185.85 117.76 184.01 114.92 181.61 112.52C179.29 110.12 176.53 108.28 173.33 107C170.13 105.72 166.65 105.08 162.89 105.08C159.13 105.08 155.65 105.72 152.45 107C149.33 108.28 146.57 110.12 144.17 112.52C141.77 114.92 139.89 117.76 138.53 121.04C137.25 124.32 136.61 127.96 136.61 131.96C136.61 135.88 137.25 139.52 138.53 142.88C139.89 146.16 141.73 149 144.05 151.4C146.45 153.8 149.25 155.64 152.45 156.92C155.65 158.2 159.13 158.84 162.89 158.84ZM35.96 319.96V235.96H52.04L101.6 296.44H93.8V235.96H113V319.96H97.04L47.36 259.48H55.16V319.96H35.96ZM150.274 319.96V251.8H123.394V235.96H196.594V251.8H169.714V319.96H150.274ZM191.795 319.96L229.235 235.96H248.435L285.995 319.96H265.595L234.875 245.8H242.555L211.715 319.96H191.795ZM210.515 301.96L215.675 287.2H258.875L264.155 301.96H210.515ZM53.36 465.96V397.8H26.48V381.96H99.68V397.8H72.8V465.96H53.36ZM149.768 467.4C143.128 467.4 136.968 466.32 131.288 464.16C125.688 462 120.808 458.96 116.648 455.04C112.568 451.12 109.368 446.52 107.048 441.24C104.808 435.96 103.688 430.2 103.688 423.96C103.688 417.72 104.808 411.96 107.048 406.68C109.368 401.4 112.608 396.8 116.768 392.88C120.928 388.96 125.808 385.92 131.408 383.76C137.008 381.6 143.088 380.52 149.648 380.52C156.288 380.52 162.368 381.6 167.888 383.76C173.488 385.92 178.328 388.96 182.408 392.88C186.568 396.8 189.808 401.4 192.128 406.68C194.448 411.88 195.608 417.64 195.608 423.96C195.608 430.2 194.448 436 192.128 441.36C189.808 446.64 186.568 451.24 182.408 455.16C178.328 459 173.488 462 167.888 464.16C162.368 466.32 156.328 467.4 149.768 467.4ZM149.648 450.84C153.408 450.84 156.848 450.2 159.968 448.92C163.168 447.64 165.968 445.8 168.368 443.4C170.768 441 172.608 438.16 173.888 434.88C175.248 431.6 175.928 427.96 175.928 423.96C175.928 419.96 175.248 416.32 173.888 413.04C172.608 409.76 170.768 406.92 168.368 404.52C166.048 402.12 163.288 400.28 160.088 399C156.888 397.72 153.408 397.08 149.648 397.08C145.888 397.08 142.408 397.72 139.208 399C136.088 400.28 133.328 402.12 130.928 404.52C128.528 406.92 126.648 409.76 125.288 413.04C124.008 416.32 123.368 419.96 123.368 423.96C123.368 427.88 124.008 431.52 125.288 434.88C126.648 438.16 128.488 441 130.808 443.4C133.208 445.8 136.008 447.64 139.208 448.92C142.408 450.2 145.888 450.84 149.648 450.84Z" fill="#C0ACEB" fill-opacity="0.31"/>
<path d="M76.8224 145.44C70.3424 145.44 64.3024 144.4 58.7024 142.32C53.1824 140.16 48.3824 137.12 44.3024 133.2C40.2224 129.28 37.0224 124.68 34.7024 119.4C32.4624 114.12 31.3424 108.32 31.3424 102C31.3424 95.68 32.4624 89.88 34.7024 84.6C37.0224 79.32 40.2224 74.72 44.3024 70.8C48.4624 66.88 53.3024 63.88 58.8224 61.8C64.3424 59.64 70.3824 58.56 76.9424 58.56C84.2224 58.56 90.7824 59.84 96.6224 62.4C102.542 64.88 107.502 68.56 111.502 73.44L99.0224 84.96C96.1424 81.68 92.9424 79.24 89.4224 77.64C85.9024 75.96 82.0624 75.12 77.9024 75.12C73.9824 75.12 70.3824 75.76 67.1024 77.04C63.8224 78.32 60.9824 80.16 58.5824 82.56C56.1824 84.96 54.3024 87.8 52.9424 91.08C51.6624 94.36 51.0224 98 51.0224 102C51.0224 106 51.6624 109.64 52.9424 112.92C54.3024 116.2 56.1824 119.04 58.5824 121.44C60.9824 123.84 63.8224 125.68 67.1024 126.96C70.3824 128.24 73.9824 128.88 77.9024 128.88C82.0624 128.88 85.9024 128.08 89.4224 126.48C92.9424 124.8 96.1424 122.28 99.0224 118.92L111.502 130.44C107.502 135.32 102.542 139.04 96.6224 141.6C90.7824 144.16 84.1824 145.44 76.8224 145.44ZM163.672 145.44C157.032 145.44 150.872 144.36 145.192 142.2C139.592 140.04 134.712 137 130.552 133.08C126.472 129.16 123.272 124.56 120.952 119.28C118.712 114 117.592 108.24 117.592 102C117.592 95.76 118.712 90 120.952 84.72C123.272 79.44 126.512 74.84 130.672 70.92C134.832 67 139.712 63.96 145.312 61.8C150.912 59.64 156.992 58.56 163.552 58.56C170.192 58.56 176.272 59.64 181.792 61.8C187.392 63.96 192.232 67 196.312 70.92C200.472 74.84 203.712 79.44 206.032 84.72C208.352 89.92 209.512 95.68 209.512 102C209.512 108.24 208.352 114.04 206.032 119.4C203.712 124.68 200.472 129.28 196.312 133.2C192.232 137.04 187.392 140.04 181.792 142.2C176.272 144.36 170.232 145.44 163.672 145.44ZM163.552 128.88C167.312 128.88 170.752 128.24 173.872 126.96C177.072 125.68 179.872 123.84 182.272 121.44C184.672 119.04 186.512 116.2 187.792 112.92C189.152 109.64 189.832 106 189.832 102C189.832 98 189.152 94.36 187.792 91.08C186.512 87.8 184.672 84.96 182.272 82.56C179.952 80.16 177.192 78.32 173.992 77.04C170.792 75.76 167.312 75.12 163.552 75.12C159.792 75.12 156.312 75.76 153.112 77.04C149.992 78.32 147.232 80.16 144.832 82.56C142.432 84.96 140.552 87.8 139.192 91.08C137.912 94.36 137.272 98 137.272 102C137.272 105.92 137.912 109.56 139.192 112.92C140.552 116.2 142.392 119.04 144.712 121.44C147.112 123.84 149.912 125.68 153.112 126.96C156.312 128.24 159.792 128.88 163.552 128.88ZM36.6224 290V206H52.7024L102.262 266.48H94.4624V206H113.662V290H97.7024L48.0224 229.52H55.8224V290H36.6224ZM150.936 290V221.84H124.056V206H197.256V221.84H170.376V290H150.936ZM192.457 290L229.897 206H249.097L286.657 290H266.257L235.537 215.84H243.217L212.377 290H192.457ZM211.177 272L216.337 257.24H259.537L264.817 272H211.177ZM54.0224 436V367.84H27.1424V352H100.342V367.84H73.4624V436H54.0224ZM150.43 437.44C143.79 437.44 137.63 436.36 131.95 434.2C126.35 432.04 121.47 429 117.31 425.08C113.23 421.16 110.03 416.56 107.71 411.28C105.47 406 104.35 400.24 104.35 394C104.35 387.76 105.47 382 107.71 376.72C110.03 371.44 113.27 366.84 117.43 362.92C121.59 359 126.47 355.96 132.07 353.8C137.67 351.64 143.75 350.56 150.31 350.56C156.95 350.56 163.03 351.64 168.55 353.8C174.15 355.96 178.99 359 183.07 362.92C187.23 366.84 190.47 371.44 192.79 376.72C195.11 381.92 196.27 387.68 196.27 394C196.27 400.24 195.11 406.04 192.79 411.4C190.47 416.68 187.23 421.28 183.07 425.2C178.99 429.04 174.15 432.04 168.55 434.2C163.03 436.36 156.99 437.44 150.43 437.44ZM150.31 420.88C154.07 420.88 157.51 420.24 160.63 418.96C163.83 417.68 166.63 415.84 169.03 413.44C171.43 411.04 173.27 408.2 174.55 404.92C175.91 401.64 176.59 398 176.59 394C176.59 390 175.91 386.36 174.55 383.08C173.27 379.8 171.43 376.96 169.03 374.56C166.71 372.16 163.95 370.32 160.75 369.04C157.55 367.76 154.07 367.12 150.31 367.12C146.55 367.12 143.07 367.76 139.87 369.04C136.75 370.32 133.99 372.16 131.59 374.56C129.19 376.96 127.31 379.8 125.95 383.08C124.67 386.36 124.03 390 124.03 394C124.03 397.92 124.67 401.56 125.95 404.92C127.31 408.2 129.15 411.04 131.47 413.44C133.87 415.84 136.67 417.68 139.87 418.96C143.07 420.24 146.55 420.88 150.31 420.88Z" fill="#C0ACEB" fill-opacity="0.71"/>
<path d="M60.4895 262.48C58.3295 262.48 56.3162 262.133 54.4495 261.44C52.6095 260.72 51.0095 259.707 49.6495 258.4C48.2895 257.093 47.2229 255.56 46.4495 253.8C45.7029 252.04 45.3295 250.107 45.3295 248C45.3295 245.893 45.7029 243.96 46.4495 242.2C47.2229 240.44 48.2895 238.907 49.6495 237.6C51.0362 236.293 52.6495 235.293 54.4895 234.6C56.3295 233.88 58.3429 233.52 60.5295 233.52C62.9562 233.52 65.1429 233.947 67.0895 234.8C69.0629 235.627 70.7162 236.853 72.0495 238.48L67.8895 242.32C66.9295 241.227 65.8629 240.413 64.6895 239.88C63.5162 239.32 62.2362 239.04 60.8495 239.04C59.5429 239.04 58.3429 239.253 57.2495 239.68C56.1562 240.107 55.2095 240.72 54.4095 241.52C53.6095 242.32 52.9829 243.267 52.5295 244.36C52.1029 245.453 51.8895 246.667 51.8895 248C51.8895 249.333 52.1029 250.547 52.5295 251.64C52.9829 252.733 53.6095 253.68 54.4095 254.48C55.2095 255.28 56.1562 255.893 57.2495 256.32C58.3429 256.747 59.5429 256.96 60.8495 256.96C62.2362 256.96 63.5162 256.693 64.6895 256.16C65.8629 255.6 66.9295 254.76 67.8895 253.64L72.0495 257.48C70.7162 259.107 69.0629 260.347 67.0895 261.2C65.1429 262.053 62.9429 262.48 60.4895 262.48ZM85.4833 262.32C83.1899 262.32 81.1499 261.84 79.3633 260.88C77.6033 259.92 76.2033 258.613 75.1633 256.96C74.1499 255.28 73.6433 253.373 73.6433 251.24C73.6433 249.08 74.1499 247.173 75.1633 245.52C76.2033 243.84 77.6033 242.533 79.3633 241.6C81.1499 240.64 83.1899 240.16 85.4833 240.16C87.7499 240.16 89.7766 240.64 91.5633 241.6C93.3499 242.533 94.7499 243.827 95.7633 245.48C96.7766 247.133 97.2833 249.053 97.2833 251.24C97.2833 253.373 96.7766 255.28 95.7633 256.96C94.7499 258.613 93.3499 259.92 91.5633 260.88C89.7766 261.84 87.7499 262.32 85.4833 262.32ZM85.4833 257.2C86.5233 257.2 87.4566 256.96 88.2833 256.48C89.1099 256 89.7633 255.32 90.2433 254.44C90.7233 253.533 90.9633 252.467 90.9633 251.24C90.9633 249.987 90.7233 248.92 90.2433 248.04C89.7633 247.16 89.1099 246.48 88.2833 246C87.4566 245.52 86.5233 245.28 85.4833 245.28C84.4433 245.28 83.5099 245.52 82.6833 246C81.8566 246.48 81.1899 247.16 80.6833 248.04C80.2033 248.92 79.9633 249.987 79.9633 251.24C79.9633 252.467 80.2033 253.533 80.6833 254.44C81.1899 255.32 81.8566 256 82.6833 256.48C83.5099 256.96 84.4433 257.2 85.4833 257.2ZM114.534 240.16C116.241 240.16 117.761 240.507 119.094 241.2C120.454 241.867 121.521 242.907 122.294 244.32C123.068 245.707 123.454 247.493 123.454 249.68V262H117.214V250.64C117.214 248.907 116.828 247.627 116.054 246.8C115.308 245.973 114.241 245.56 112.854 245.56C111.868 245.56 110.974 245.773 110.174 246.2C109.401 246.6 108.788 247.227 108.334 248.08C107.908 248.933 107.694 250.027 107.694 251.36V262H101.454V240.48H107.414V246.44L106.294 244.64C107.068 243.2 108.174 242.093 109.614 241.32C111.054 240.547 112.694 240.16 114.534 240.16ZM137.91 262.32C135.377 262.32 133.404 261.68 131.99 260.4C130.577 259.093 129.87 257.16 129.87 254.6V235.72H136.11V254.52C136.11 255.427 136.35 256.133 136.83 256.64C137.31 257.12 137.964 257.36 138.79 257.36C139.777 257.36 140.617 257.093 141.31 256.56L142.99 260.96C142.35 261.413 141.577 261.76 140.67 262C139.79 262.213 138.87 262.32 137.91 262.32ZM126.55 245.76V240.96H141.47V245.76H126.55ZM159.693 262V257.8L159.293 256.88V249.36C159.293 248.027 158.88 246.987 158.053 246.24C157.253 245.493 156.013 245.12 154.333 245.12C153.187 245.12 152.053 245.307 150.933 245.68C149.84 246.027 148.907 246.507 148.133 247.12L145.893 242.76C147.067 241.933 148.48 241.293 150.133 240.84C151.787 240.387 153.467 240.16 155.173 240.16C158.453 240.16 161 240.933 162.813 242.48C164.627 244.027 165.533 246.44 165.533 249.72V262H159.693ZM153.133 262.32C151.453 262.32 150.013 262.04 148.813 261.48C147.613 260.893 146.693 260.107 146.053 259.12C145.413 258.133 145.093 257.027 145.093 255.8C145.093 254.52 145.4 253.4 146.013 252.44C146.653 251.48 147.653 250.733 149.013 250.2C150.373 249.64 152.147 249.36 154.333 249.36H160.053V253H155.013C153.547 253 152.533 253.24 151.973 253.72C151.44 254.2 151.173 254.8 151.173 255.52C151.173 256.32 151.48 256.96 152.093 257.44C152.733 257.893 153.6 258.12 154.693 258.12C155.733 258.12 156.667 257.88 157.493 257.4C158.32 256.893 158.92 256.16 159.293 255.2L160.253 258.08C159.8 259.467 158.973 260.52 157.773 261.24C156.573 261.96 155.027 262.32 153.133 262.32ZM179.981 262.32C177.447 262.32 175.474 261.68 174.061 260.4C172.647 259.093 171.941 257.16 171.941 254.6V235.72H178.181V254.52C178.181 255.427 178.421 256.133 178.901 256.64C179.381 257.12 180.034 257.36 180.861 257.36C181.847 257.36 182.687 257.093 183.381 256.56L185.061 260.96C184.421 261.413 183.647 261.76 182.741 262C181.861 262.213 180.941 262.32 179.981 262.32ZM168.621 245.76V240.96H183.541V245.76H168.621ZM198.14 262.32C195.846 262.32 193.806 261.84 192.02 260.88C190.26 259.92 188.86 258.613 187.82 256.96C186.806 255.28 186.3 253.373 186.3 251.24C186.3 249.08 186.806 247.173 187.82 245.52C188.86 243.84 190.26 242.533 192.02 241.6C193.806 240.64 195.846 240.16 198.14 240.16C200.406 240.16 202.433 240.64 204.22 241.6C206.006 242.533 207.406 243.827 208.42 245.48C209.433 247.133 209.94 249.053 209.94 251.24C209.94 253.373 209.433 255.28 208.42 256.96C207.406 258.613 206.006 259.92 204.22 260.88C202.433 261.84 200.406 262.32 198.14 262.32ZM198.14 257.2C199.18 257.2 200.113 256.96 200.94 256.48C201.766 256 202.42 255.32 202.9 254.44C203.38 253.533 203.62 252.467 203.62 251.24C203.62 249.987 203.38 248.92 202.9 248.04C202.42 247.16 201.766 246.48 200.94 246C200.113 245.52 199.18 245.28 198.14 245.28C197.1 245.28 196.166 245.52 195.34 246C194.513 246.48 193.846 247.16 193.34 248.04C192.86 248.92 192.62 249.987 192.62 251.24C192.62 252.467 192.86 253.533 193.34 254.44C193.846 255.32 194.513 256 195.34 256.48C196.166 256.96 197.1 257.2 198.14 257.2Z" fill="white"/>
</svg>
