<svg width="865" height="155" viewBox="0 0 865 155" fill="none" xmlns="http://www.w3.org/2000/svg">
<path d="M57.6 31.44H77.04V115.44H57.6V31.44ZM19.44 115.44H0V31.44H19.44V115.44ZM59.04 81H18V64.56H59.04V81Z" fill="#C0ACEB" fill-opacity="0.59"/>
<path d="M85.8741 115.44L123.314 31.44H142.514L180.074 115.44H159.674L128.954 41.28H136.634L105.794 115.44H85.8741ZM104.594 97.44L109.754 82.68H152.954L158.234 97.44H104.594Z" fill="#C0ACEB" fill-opacity="0.59"/>
<path d="M188.789 115.44V31.44H229.829C240.389 31.44 248.309 33.44 253.589 37.44C258.949 41.44 261.629 46.72 261.629 53.28C261.629 57.68 260.549 61.52 258.389 64.8C256.229 68 253.269 70.48 249.509 72.24C245.749 74 241.429 74.88 236.549 74.88L238.829 69.96C244.109 69.96 248.789 70.84 252.869 72.6C256.949 74.28 260.109 76.8 262.349 80.16C264.669 83.52 265.829 87.64 265.829 92.52C265.829 99.72 262.989 105.36 257.309 109.44C251.629 113.44 243.269 115.44 232.229 115.44H188.789ZM208.109 100.8H230.789C235.829 100.8 239.629 100 242.189 98.4C244.829 96.72 246.149 94.08 246.149 90.48C246.149 86.96 244.829 84.36 242.189 82.68C239.629 80.92 235.829 80.04 230.789 80.04H206.669V65.88H227.429C232.149 65.88 235.749 65.08 238.229 63.48C240.789 61.8 242.069 59.28 242.069 55.92C242.069 52.64 240.789 50.2 238.229 48.6C235.749 46.92 232.149 46.08 227.429 46.08H208.109V100.8Z" fill="#C0ACEB" fill-opacity="0.59"/>
<path d="M280.547 115.44V31.44H299.987V115.44H280.547Z" fill="#C0ACEB" fill-opacity="0.59"/>
<path d="M319.922 115.44V31.44H339.362V99.6H381.482V115.44H319.922Z" fill="#C0ACEB" fill-opacity="0.59"/>
<path d="M392.344 115.44V31.44H411.784V115.44H392.344Z" fill="#C0ACEB" fill-opacity="0.59"/>
<path d="M431.719 115.44V31.44H469.879C478.999 31.44 487.039 33.2 493.999 36.72C500.959 40.16 506.399 45 510.319 51.24C514.239 57.48 516.199 64.88 516.199 73.44C516.199 81.92 514.239 89.32 510.319 95.64C506.399 101.88 500.959 106.76 493.999 110.28C487.039 113.72 478.999 115.44 469.879 115.44H431.719ZM451.159 99.48H468.919C474.519 99.48 479.359 98.44 483.439 96.36C487.599 94.2 490.799 91.16 493.039 87.24C495.359 83.32 496.519 78.72 496.519 73.44C496.519 68.08 495.359 63.48 493.039 59.64C490.799 55.72 487.599 52.72 483.439 50.64C479.359 48.48 474.519 47.4 468.919 47.4H451.159V99.48Z" fill="#C0ACEB" fill-opacity="0.59"/>
<path d="M518.648 115.44L556.088 31.44H575.287L612.847 115.44H592.448L561.727 41.28H569.408L538.568 115.44H518.648ZM537.367 97.44L542.528 82.68H585.727L591.008 97.44H537.367Z" fill="#C0ACEB" fill-opacity="0.59"/>
<path d="M621.562 115.44V31.44H659.722C668.842 31.44 676.883 33.2 683.843 36.72C690.803 40.16 696.242 45 700.162 51.24C704.082 57.48 706.042 64.88 706.042 73.44C706.042 81.92 704.082 89.32 700.162 95.64C696.242 101.88 690.803 106.76 683.843 110.28C676.883 113.72 668.842 115.44 659.722 115.44H621.562ZM641.003 99.48H658.763C664.363 99.48 669.202 98.44 673.282 96.36C677.442 94.2 680.643 91.16 682.883 87.24C685.203 83.32 686.362 78.72 686.362 73.44C686.362 68.08 685.203 63.48 682.883 59.64C680.643 55.72 677.442 52.72 673.282 50.64C669.202 48.48 664.363 47.4 658.763 47.4H641.003V99.48Z" fill="#C0ACEB" fill-opacity="0.59"/>
<path d="M738.583 65.28H779.023V80.4H738.583V65.28ZM740.023 99.84H785.743V115.44H720.703V31.44H784.183V47.04H740.023V99.84Z" fill="#C0ACEB" fill-opacity="0.59"/>
<path d="M828.811 116.88C822.091 116.88 815.651 116 809.491 114.24C803.331 112.4 798.371 110.04 794.611 107.16L801.211 92.52C804.811 95.08 809.051 97.2 813.931 98.88C818.891 100.48 823.891 101.28 828.931 101.28C832.771 101.28 835.851 100.92 838.171 100.2C840.571 99.4 842.331 98.32 843.451 96.96C844.571 95.6 845.131 94.04 845.131 92.28C845.131 90.04 844.251 88.28 842.491 87C840.731 85.64 838.411 84.56 835.531 83.76C832.651 82.88 829.451 82.08 825.931 81.36C822.491 80.56 819.011 79.6 815.491 78.48C812.051 77.36 808.891 75.92 806.011 74.16C803.131 72.4 800.771 70.08 798.931 67.2C797.171 64.32 796.291 60.64 796.291 56.16C796.291 51.36 797.571 47 800.131 43.08C802.771 39.08 806.691 35.92 811.891 33.6C817.171 31.2 823.771 30 831.691 30C836.971 30 842.171 30.64 847.291 31.92C852.411 33.12 856.931 34.96 860.851 37.44L854.851 52.2C850.931 49.96 847.011 48.32 843.091 47.28C839.171 46.16 835.331 45.6 831.571 45.6C827.811 45.6 824.731 46.04 822.331 46.92C819.931 47.8 818.211 48.96 817.171 50.4C816.131 51.76 815.611 53.36 815.611 55.2C815.611 57.36 816.491 59.12 818.251 60.48C820.011 61.76 822.331 62.8 825.211 63.6C828.091 64.4 831.251 65.2 834.691 66C838.211 66.8 841.691 67.72 845.131 68.76C848.651 69.8 851.851 71.2 854.731 72.96C857.611 74.72 859.931 77.04 861.691 79.92C863.531 82.8 864.451 86.44 864.451 90.84C864.451 95.56 863.131 99.88 860.491 103.8C857.851 107.72 853.891 110.88 848.611 113.28C843.411 115.68 836.811 116.88 828.811 116.88Z" fill="#C0ACEB" fill-opacity="0.59"/>
<path d="M57.6 69.44H77.04V153.44H57.6V69.44ZM19.44 153.44H0V69.44H19.44V153.44ZM59.04 119H18V102.56H59.04V119Z" fill="#C0ACEB" fill-opacity="0.2"/>
<path d="M85.8741 153.44L123.314 69.44H142.514L180.074 153.44H159.674L128.954 79.28H136.634L105.794 153.44H85.8741ZM104.594 135.44L109.754 120.68H152.954L158.234 135.44H104.594Z" fill="#C0ACEB" fill-opacity="0.2"/>
<path d="M188.789 153.44V69.44H229.829C240.389 69.44 248.309 71.44 253.589 75.44C258.949 79.44 261.629 84.72 261.629 91.28C261.629 95.68 260.549 99.52 258.389 102.8C256.229 106 253.269 108.48 249.509 110.24C245.749 112 241.429 112.88 236.549 112.88L238.829 107.96C244.109 107.96 248.789 108.84 252.869 110.6C256.949 112.28 260.109 114.8 262.349 118.16C264.669 121.52 265.829 125.64 265.829 130.52C265.829 137.72 262.989 143.36 257.309 147.44C251.629 151.44 243.269 153.44 232.229 153.44H188.789ZM208.109 138.8H230.789C235.829 138.8 239.629 138 242.189 136.4C244.829 134.72 246.149 132.08 246.149 128.48C246.149 124.96 244.829 122.36 242.189 120.68C239.629 118.92 235.829 118.04 230.789 118.04H206.669V103.88H227.429C232.149 103.88 235.749 103.08 238.229 101.48C240.789 99.8 242.069 97.28 242.069 93.92C242.069 90.64 240.789 88.2 238.229 86.6C235.749 84.92 232.149 84.08 227.429 84.08H208.109V138.8Z" fill="#C0ACEB" fill-opacity="0.2"/>
<path d="M280.547 153.44V69.44H299.987V153.44H280.547Z" fill="#C0ACEB" fill-opacity="0.2"/>
<path d="M319.922 153.44V69.44H339.362V137.6H381.482V153.44H319.922Z" fill="#C0ACEB" fill-opacity="0.2"/>
<path d="M392.344 153.44V69.44H411.784V153.44H392.344Z" fill="#C0ACEB" fill-opacity="0.2"/>
<path d="M431.719 153.44V69.44H469.879C478.999 69.44 487.039 71.2 493.999 74.72C500.959 78.16 506.399 83 510.319 89.24C514.239 95.48 516.199 102.88 516.199 111.44C516.199 119.92 514.239 127.32 510.319 133.64C506.399 139.88 500.959 144.76 493.999 148.28C487.039 151.72 478.999 153.44 469.879 153.44H431.719ZM451.159 137.48H468.919C474.519 137.48 479.359 136.44 483.439 134.36C487.599 132.2 490.799 129.16 493.039 125.24C495.359 121.32 496.519 116.72 496.519 111.44C496.519 106.08 495.359 101.48 493.039 97.64C490.799 93.72 487.599 90.72 483.439 88.64C479.359 86.48 474.519 85.4 468.919 85.4H451.159V137.48Z" fill="#C0ACEB" fill-opacity="0.2"/>
<path d="M518.648 153.44L556.088 69.44H575.287L612.847 153.44H592.448L561.727 79.28H569.408L538.568 153.44H518.648ZM537.367 135.44L542.528 120.68H585.727L591.008 135.44H537.367Z" fill="#C0ACEB" fill-opacity="0.2"/>
<path d="M621.562 153.44V69.44H659.722C668.842 69.44 676.883 71.2 683.843 74.72C690.803 78.16 696.242 83 700.162 89.24C704.082 95.48 706.042 102.88 706.042 111.44C706.042 119.92 704.082 127.32 700.162 133.64C696.242 139.88 690.803 144.76 683.843 148.28C676.883 151.72 668.842 153.44 659.722 153.44H621.562ZM641.003 137.48H658.763C664.363 137.48 669.202 136.44 673.282 134.36C677.442 132.2 680.643 129.16 682.883 125.24C685.203 121.32 686.362 116.72 686.362 111.44C686.362 106.08 685.203 101.48 682.883 97.64C680.643 93.72 677.442 90.72 673.282 88.64C669.202 86.48 664.363 85.4 658.763 85.4H641.003V137.48Z" fill="#C0ACEB" fill-opacity="0.2"/>
<path d="M738.583 103.28H779.023V118.4H738.583V103.28ZM740.023 137.84H785.743V153.44H720.703V69.44H784.183V85.04H740.023V137.84Z" fill="#C0ACEB" fill-opacity="0.2"/>
<path d="M828.811 154.88C822.091 154.88 815.651 154 809.491 152.24C803.331 150.4 798.371 148.04 794.611 145.16L801.211 130.52C804.811 133.08 809.051 135.2 813.931 136.88C818.891 138.48 823.891 139.28 828.931 139.28C832.771 139.28 835.851 138.92 838.171 138.2C840.571 137.4 842.331 136.32 843.451 134.96C844.571 133.6 845.131 132.04 845.131 130.28C845.131 128.04 844.251 126.28 842.491 125C840.731 123.64 838.411 122.56 835.531 121.76C832.651 120.88 829.451 120.08 825.931 119.36C822.491 118.56 819.011 117.6 815.491 116.48C812.051 115.36 808.891 113.92 806.011 112.16C803.131 110.4 800.771 108.08 798.931 105.2C797.171 102.32 796.291 98.64 796.291 94.16C796.291 89.36 797.571 85 800.131 81.08C802.771 77.08 806.691 73.92 811.891 71.6C817.171 69.2 823.771 68 831.691 68C836.971 68 842.171 68.64 847.291 69.92C852.411 71.12 856.931 72.96 860.851 75.44L854.851 90.2C850.931 87.96 847.011 86.32 843.091 85.28C839.171 84.16 835.331 83.6 831.571 83.6C827.811 83.6 824.731 84.04 822.331 84.92C819.931 85.8 818.211 86.96 817.171 88.4C816.131 89.76 815.611 91.36 815.611 93.2C815.611 95.36 816.491 97.12 818.251 98.48C820.011 99.76 822.331 100.8 825.211 101.6C828.091 102.4 831.251 103.2 834.691 104C838.211 104.8 841.691 105.72 845.131 106.76C848.651 107.8 851.851 109.2 854.731 110.96C857.611 112.72 859.931 115.04 861.691 117.92C863.531 120.8 864.451 124.44 864.451 128.84C864.451 133.56 863.131 137.88 860.491 141.8C857.851 145.72 853.891 148.88 848.611 151.28C843.411 153.68 836.811 154.88 828.811 154.88Z" fill="#C0ACEB" fill-opacity="0.2"/>
<path d="M57.6 1.44H77.04V85.44H57.6V1.44ZM19.44 85.44H0V1.44H19.44V85.44ZM59.04 51H18V34.56H59.04V51Z" fill="#C0ACEB" fill-opacity="0.2"/>
<path d="M85.8741 85.44L123.314 1.44H142.514L180.074 85.44H159.674L128.954 11.28H136.634L105.794 85.44H85.8741ZM104.594 67.44L109.754 52.68H152.954L158.234 67.44H104.594Z" fill="#C0ACEB" fill-opacity="0.2"/>
<path d="M188.789 85.44V1.44H229.829C240.389 1.44 248.309 3.44 253.589 7.44C258.949 11.44 261.629 16.72 261.629 23.28C261.629 27.68 260.549 31.52 258.389 34.8C256.229 38 253.269 40.48 249.509 42.24C245.749 44 241.429 44.88 236.549 44.88L238.829 39.96C244.109 39.96 248.789 40.84 252.869 42.6C256.949 44.28 260.109 46.8 262.349 50.16C264.669 53.52 265.829 57.64 265.829 62.52C265.829 69.72 262.989 75.36 257.309 79.44C251.629 83.44 243.269 85.44 232.229 85.44H188.789ZM208.109 70.8H230.789C235.829 70.8 239.629 70 242.189 68.4C244.829 66.72 246.149 64.08 246.149 60.48C246.149 56.96 244.829 54.36 242.189 52.68C239.629 50.92 235.829 50.04 230.789 50.04H206.669V35.88H227.429C232.149 35.88 235.749 35.08 238.229 33.48C240.789 31.8 242.069 29.28 242.069 25.92C242.069 22.64 240.789 20.2 238.229 18.6C235.749 16.92 232.149 16.08 227.429 16.08H208.109V70.8Z" fill="#C0ACEB" fill-opacity="0.2"/>
<path d="M280.547 85.44V1.44H299.987V85.44H280.547Z" fill="#C0ACEB" fill-opacity="0.2"/>
<path d="M319.922 85.44V1.44H339.362V69.6H381.482V85.44H319.922Z" fill="#C0ACEB" fill-opacity="0.2"/>
<path d="M392.344 85.44V1.44H411.784V85.44H392.344Z" fill="#C0ACEB" fill-opacity="0.2"/>
<path d="M431.719 85.44V1.44H469.879C478.999 1.44 487.039 3.2 493.999 6.72C500.959 10.16 506.399 15 510.319 21.24C514.239 27.48 516.199 34.88 516.199 43.44C516.199 51.92 514.239 59.32 510.319 65.64C506.399 71.88 500.959 76.76 493.999 80.28C487.039 83.72 478.999 85.44 469.879 85.44H431.719ZM451.159 69.48H468.919C474.519 69.48 479.359 68.44 483.439 66.36C487.599 64.2 490.799 61.16 493.039 57.24C495.359 53.32 496.519 48.72 496.519 43.44C496.519 38.08 495.359 33.48 493.039 29.64C490.799 25.72 487.599 22.72 483.439 20.64C479.359 18.48 474.519 17.4 468.919 17.4H451.159V69.48Z" fill="#C0ACEB" fill-opacity="0.2"/>
<path d="M518.648 85.44L556.088 1.44H575.287L612.847 85.44H592.448L561.727 11.28H569.408L538.568 85.44H518.648ZM537.367 67.44L542.528 52.68H585.727L591.008 67.44H537.367Z" fill="#C0ACEB" fill-opacity="0.2"/>
<path d="M621.562 85.44V1.44H659.722C668.842 1.44 676.883 3.2 683.843 6.72C690.803 10.16 696.242 15 700.162 21.24C704.082 27.48 706.042 34.88 706.042 43.44C706.042 51.92 704.082 59.32 700.162 65.64C696.242 71.88 690.803 76.76 683.843 80.28C676.883 83.72 668.842 85.44 659.722 85.44H621.562ZM641.003 69.48H658.763C664.363 69.48 669.202 68.44 673.282 66.36C677.442 64.2 680.643 61.16 682.883 57.24C685.203 53.32 686.362 48.72 686.362 43.44C686.362 38.08 685.203 33.48 682.883 29.64C680.643 25.72 677.442 22.72 673.282 20.64C669.202 18.48 664.363 17.4 658.763 17.4H641.003V69.48Z" fill="#C0ACEB" fill-opacity="0.2"/>
<path d="M738.583 35.28H779.023V50.4H738.583V35.28ZM740.023 69.84H785.743V85.44H720.703V1.44H784.183V17.04H740.023V69.84Z" fill="#C0ACEB" fill-opacity="0.2"/>
<path d="M828.811 86.88C822.091 86.88 815.651 86 809.491 84.24C803.331 82.4 798.371 80.04 794.611 77.16L801.211 62.52C804.811 65.08 809.051 67.2 813.931 68.88C818.891 70.48 823.891 71.28 828.931 71.28C832.771 71.28 835.851 70.92 838.171 70.2C840.571 69.4 842.331 68.32 843.451 66.96C844.571 65.6 845.131 64.04 845.131 62.28C845.131 60.04 844.251 58.28 842.491 57C840.731 55.64 838.411 54.56 835.531 53.76C832.651 52.88 829.451 52.08 825.931 51.36C822.491 50.56 819.011 49.6 815.491 48.48C812.051 47.36 808.891 45.92 806.011 44.16C803.131 42.4 800.771 40.08 798.931 37.2C797.171 34.32 796.291 30.64 796.291 26.16C796.291 21.36 797.571 17 800.131 13.08C802.771 9.08 806.691 5.92 811.891 3.6C817.171 1.2 823.771 0 831.691 0C836.971 0 842.171 0.639999 847.291 1.92C852.411 3.12 856.931 4.96 860.851 7.44L854.851 22.2C850.931 19.96 847.011 18.32 843.091 17.28C839.171 16.16 835.331 15.6 831.571 15.6C827.811 15.6 824.731 16.04 822.331 16.92C819.931 17.8 818.211 18.96 817.171 20.4C816.131 21.76 815.611 23.36 815.611 25.2C815.611 27.36 816.491 29.12 818.251 30.48C820.011 31.76 822.331 32.8 825.211 33.6C828.091 34.4 831.251 35.2 834.691 36C838.211 36.8 841.691 37.72 845.131 38.76C848.651 39.8 851.851 41.2 854.731 42.96C857.611 44.72 859.931 47.04 861.691 49.92C863.531 52.8 864.451 56.44 864.451 60.84C864.451 65.56 863.131 69.88 860.491 73.8C857.851 77.72 853.891 80.88 848.611 83.28C843.411 85.68 836.811 86.88 828.811 86.88Z" fill="#C0ACEB" fill-opacity="0.2"/>
<path d="M306.865 60.94H312.535V85.44H306.865V60.94ZM295.735 85.44H290.065V60.94H295.735V85.44ZM307.285 75.395H295.315V70.6H307.285V75.395Z" fill="white"/>
<path d="M329.497 85.44V81.765L329.147 80.96V74.38C329.147 73.2133 328.785 72.3033 328.062 71.65C327.362 70.9967 326.277 70.67 324.807 70.67C323.803 70.67 322.812 70.8333 321.832 71.16C320.875 71.4633 320.058 71.8833 319.382 72.42L317.422 68.605C318.448 67.8817 319.685 67.3217 321.132 66.925C322.578 66.5283 324.048 66.33 325.542 66.33C328.412 66.33 330.64 67.0067 332.227 68.36C333.813 69.7133 334.607 71.825 334.607 74.695V85.44H329.497ZM323.757 85.72C322.287 85.72 321.027 85.475 319.977 84.985C318.927 84.4717 318.122 83.7833 317.562 82.92C317.002 82.0567 316.722 81.0883 316.722 80.015C316.722 78.895 316.99 77.915 317.527 77.075C318.087 76.235 318.962 75.5817 320.152 75.115C321.342 74.625 322.893 74.38 324.807 74.38H329.812V77.565H325.402C324.118 77.565 323.232 77.775 322.742 78.195C322.275 78.615 322.042 79.14 322.042 79.77C322.042 80.47 322.31 81.03 322.847 81.45C323.407 81.8467 324.165 82.045 325.122 82.045C326.032 82.045 326.848 81.835 327.572 81.415C328.295 80.9717 328.82 80.33 329.147 79.49L329.987 82.01C329.59 83.2233 328.867 84.145 327.817 84.775C326.767 85.405 325.413 85.72 323.757 85.72Z" fill="white"/>
<path d="M350.678 85.72C349.022 85.72 347.598 85.37 346.408 84.67C345.218 83.97 344.308 82.9083 343.678 81.485C343.048 80.0383 342.733 78.2183 342.733 76.025C342.733 73.8083 343.06 71.9883 343.713 70.565C344.39 69.1417 345.323 68.08 346.513 67.38C347.703 66.68 349.092 66.33 350.678 66.33C352.452 66.33 354.038 66.7267 355.438 67.52C356.862 68.3133 357.982 69.4333 358.798 70.88C359.638 72.3267 360.058 74.0417 360.058 76.025C360.058 77.985 359.638 79.6883 358.798 81.135C357.982 82.5817 356.862 83.7133 355.438 84.53C354.038 85.3233 352.452 85.72 350.678 85.72ZM339.548 85.44V59.47H345.008V70.425L344.658 75.99L344.763 81.59V85.44H339.548ZM349.733 81.24C350.643 81.24 351.448 81.03 352.148 80.61C352.872 80.19 353.443 79.595 353.863 78.825C354.307 78.0317 354.528 77.0983 354.528 76.025C354.528 74.9283 354.307 73.995 353.863 73.225C353.443 72.455 352.872 71.86 352.148 71.44C351.448 71.02 350.643 70.81 349.733 70.81C348.823 70.81 348.007 71.02 347.283 71.44C346.56 71.86 345.988 72.455 345.568 73.225C345.148 73.995 344.938 74.9283 344.938 76.025C344.938 77.0983 345.148 78.0317 345.568 78.825C345.988 79.595 346.56 80.19 347.283 80.61C348.007 81.03 348.823 81.24 349.733 81.24Z" fill="white"/>
<path d="M363.713 85.44V66.61H369.173V85.44H363.713ZM366.443 63.985C365.44 63.985 364.623 63.6933 363.993 63.11C363.363 62.5267 363.048 61.8033 363.048 60.94C363.048 60.0767 363.363 59.3533 363.993 58.77C364.623 58.1867 365.44 57.895 366.443 57.895C367.447 57.895 368.263 58.175 368.893 58.735C369.523 59.2717 369.838 59.9717 369.838 60.835C369.838 61.745 369.523 62.5033 368.893 63.11C368.287 63.6933 367.47 63.985 366.443 63.985Z" fill="white"/>
<path d="M374.241 85.44V59.47H379.701V85.44H374.241Z" fill="white"/>
<path d="M384.768 85.44V66.61H390.228V85.44H384.768ZM387.498 63.985C386.495 63.985 385.678 63.6933 385.048 63.11C384.418 62.5267 384.103 61.8033 384.103 60.94C384.103 60.0767 384.418 59.3533 385.048 58.77C385.678 58.1867 386.495 57.895 387.498 57.895C388.501 57.895 389.318 58.175 389.948 58.735C390.578 59.2717 390.893 59.9717 390.893 60.835C390.893 61.745 390.578 62.5033 389.948 63.11C389.341 63.6933 388.525 63.985 387.498 63.985Z" fill="white"/>
<path d="M403.38 85.72C401.607 85.72 400.009 85.3233 398.585 84.53C397.162 83.7133 396.03 82.5817 395.19 81.135C394.374 79.6883 393.965 77.985 393.965 76.025C393.965 74.0417 394.374 72.3267 395.19 70.88C396.03 69.4333 397.162 68.3133 398.585 67.52C400.009 66.7267 401.607 66.33 403.38 66.33C404.967 66.33 406.355 66.68 407.545 67.38C408.735 68.08 409.657 69.1417 410.31 70.565C410.964 71.9883 411.29 73.8083 411.29 76.025C411.29 78.2183 410.975 80.0383 410.345 81.485C409.715 82.9083 408.805 83.97 407.615 84.67C406.449 85.37 405.037 85.72 403.38 85.72ZM404.325 81.24C405.212 81.24 406.017 81.03 406.74 80.61C407.464 80.19 408.035 79.595 408.455 78.825C408.899 78.0317 409.12 77.0983 409.12 76.025C409.12 74.9283 408.899 73.995 408.455 73.225C408.035 72.455 407.464 71.86 406.74 71.44C406.017 71.02 405.212 70.81 404.325 70.81C403.415 70.81 402.599 71.02 401.875 71.44C401.152 71.86 400.569 72.455 400.125 73.225C399.705 73.995 399.495 74.9283 399.495 76.025C399.495 77.0983 399.705 78.0317 400.125 78.825C400.569 79.595 401.152 80.19 401.875 80.61C402.599 81.03 403.415 81.24 404.325 81.24ZM409.26 85.44V81.59L409.365 75.99L409.015 70.425V59.47H414.475V85.44H409.26Z" fill="white"/>
<path d="M431.079 85.44V81.765L430.729 80.96V74.38C430.729 73.2133 430.367 72.3033 429.644 71.65C428.944 70.9967 427.859 70.67 426.389 70.67C425.385 70.67 424.394 70.8333 423.414 71.16C422.457 71.4633 421.64 71.8833 420.964 72.42L419.004 68.605C420.03 67.8817 421.267 67.3217 422.714 66.925C424.16 66.5283 425.63 66.33 427.124 66.33C429.994 66.33 432.222 67.0067 433.809 68.36C435.395 69.7133 436.189 71.825 436.189 74.695V85.44H431.079ZM425.339 85.72C423.869 85.72 422.609 85.475 421.559 84.985C420.509 84.4717 419.704 83.7833 419.144 82.92C418.584 82.0567 418.304 81.0883 418.304 80.015C418.304 78.895 418.572 77.915 419.109 77.075C419.669 76.235 420.544 75.5817 421.734 75.115C422.924 74.625 424.475 74.38 426.389 74.38H431.394V77.565H426.984C425.7 77.565 424.814 77.775 424.324 78.195C423.857 78.615 423.624 79.14 423.624 79.77C423.624 80.47 423.892 81.03 424.429 81.45C424.989 81.8467 425.747 82.045 426.704 82.045C427.614 82.045 428.43 81.835 429.154 81.415C429.877 80.9717 430.402 80.33 430.729 79.49L431.569 82.01C431.172 83.2233 430.449 84.145 429.399 84.775C428.349 85.405 426.995 85.72 425.339 85.72Z" fill="white"/>
<path d="M449.352 85.72C447.579 85.72 445.98 85.3233 444.557 84.53C443.134 83.7133 442.002 82.5817 441.162 81.135C440.345 79.6883 439.937 77.985 439.937 76.025C439.937 74.0417 440.345 72.3267 441.162 70.88C442.002 69.4333 443.134 68.3133 444.557 67.52C445.98 66.7267 447.579 66.33 449.352 66.33C450.939 66.33 452.327 66.68 453.517 67.38C454.707 68.08 455.629 69.1417 456.282 70.565C456.935 71.9883 457.262 73.8083 457.262 76.025C457.262 78.2183 456.947 80.0383 456.317 81.485C455.687 82.9083 454.777 83.97 453.587 84.67C452.42 85.37 451.009 85.72 449.352 85.72ZM450.297 81.24C451.184 81.24 451.989 81.03 452.712 80.61C453.435 80.19 454.007 79.595 454.427 78.825C454.87 78.0317 455.092 77.0983 455.092 76.025C455.092 74.9283 454.87 73.995 454.427 73.225C454.007 72.455 453.435 71.86 452.712 71.44C451.989 71.02 451.184 70.81 450.297 70.81C449.387 70.81 448.57 71.02 447.847 71.44C447.124 71.86 446.54 72.455 446.097 73.225C445.677 73.995 445.467 74.9283 445.467 76.025C445.467 77.0983 445.677 78.0317 446.097 78.825C446.54 79.595 447.124 80.19 447.847 80.61C448.57 81.03 449.387 81.24 450.297 81.24ZM455.232 85.44V81.59L455.337 75.99L454.987 70.425V59.47H460.447V85.44H455.232Z" fill="white"/>
<path d="M474.845 85.72C472.699 85.72 470.809 85.3 469.175 84.46C467.565 83.62 466.317 82.4767 465.43 81.03C464.544 79.56 464.1 77.8917 464.1 76.025C464.1 74.135 464.532 72.4667 465.395 71.02C466.282 69.55 467.484 68.4067 469 67.59C470.517 66.75 472.232 66.33 474.145 66.33C475.989 66.33 477.645 66.7267 479.115 67.52C480.609 68.29 481.787 69.41 482.65 70.88C483.514 72.3267 483.945 74.065 483.945 76.095C483.945 76.305 483.934 76.55 483.91 76.83C483.887 77.0867 483.864 77.3317 483.84 77.565H468.545V74.38H480.97L478.87 75.325C478.87 74.345 478.672 73.4933 478.275 72.77C477.879 72.0467 477.33 71.4867 476.63 71.09C475.93 70.67 475.114 70.46 474.18 70.46C473.247 70.46 472.419 70.67 471.695 71.09C470.995 71.4867 470.447 72.0583 470.05 72.805C469.654 73.5283 469.455 74.3917 469.455 75.395V76.235C469.455 77.2617 469.677 78.1717 470.12 78.965C470.587 79.735 471.229 80.33 472.045 80.75C472.885 81.1467 473.865 81.345 474.985 81.345C475.989 81.345 476.864 81.1933 477.61 80.89C478.38 80.5867 479.08 80.1317 479.71 79.525L482.615 82.675C481.752 83.655 480.667 84.4133 479.36 84.95C478.054 85.4633 476.549 85.72 474.845 85.72Z" fill="white"/>
<path d="M493.915 85.72C492.305 85.72 490.754 85.5333 489.26 85.16C487.79 84.7633 486.624 84.2733 485.76 83.69L487.581 79.77C488.444 80.3067 489.459 80.75 490.626 81.1C491.816 81.4267 492.982 81.59 494.126 81.59C495.386 81.59 496.272 81.4383 496.786 81.135C497.322 80.8317 497.591 80.4117 497.591 79.875C497.591 79.4317 497.381 79.105 496.961 78.895C496.564 78.6617 496.027 78.4867 495.35 78.37C494.674 78.2533 493.927 78.1367 493.111 78.02C492.317 77.9033 491.512 77.7517 490.695 77.565C489.879 77.355 489.132 77.0517 488.456 76.655C487.779 76.2583 487.231 75.7217 486.811 75.045C486.414 74.3683 486.216 73.4933 486.216 72.42C486.216 71.23 486.554 70.18 487.23 69.27C487.93 68.36 488.934 67.6483 490.241 67.135C491.547 66.5983 493.111 66.33 494.931 66.33C496.214 66.33 497.52 66.47 498.85 66.75C500.18 67.03 501.289 67.4383 502.176 67.975L500.355 71.86C499.445 71.3233 498.524 70.9617 497.591 70.775C496.681 70.565 495.794 70.46 494.931 70.46C493.717 70.46 492.831 70.6233 492.271 70.95C491.711 71.2767 491.431 71.6967 491.431 72.21C491.431 72.6767 491.629 73.0267 492.026 73.26C492.446 73.4933 492.994 73.68 493.671 73.82C494.347 73.96 495.082 74.0883 495.876 74.205C496.692 74.2983 497.509 74.45 498.326 74.66C499.142 74.87 499.877 75.1733 500.531 75.57C501.207 75.9433 501.756 76.4683 502.176 77.145C502.596 77.7983 502.806 78.6617 502.806 79.735C502.806 80.9017 502.455 81.94 501.755 82.85C501.055 83.7367 500.041 84.4367 498.711 84.95C497.404 85.4633 495.805 85.72 493.915 85.72Z" fill="white"/>
</svg>
