<svg width="86" height="80" viewBox="0 0 86 80" fill="none" xmlns="http://www.w3.org/2000/svg">
<path d="M86 40C86 62.0914 66.7482 80 43 80C19.2518 80 0 62.0914 0 40C0 17.9086 19.2518 0 43 0C66.7482 0 86 17.9086 86 40Z" fill="#F0F0F0" fill-opacity="0.8"/>
<path d="M60.2941 25.9485H25.7059C25.1089 25.9485 24.625 26.4324 24.625 27.0294V51.5294C24.625 52.9223 25.7542 54.0515 27.1471 54.0515H58.8529C60.2458 54.0515 61.375 52.9223 61.375 51.5294V27.0294C61.375 26.4325 60.8911 25.9486 60.2941 25.9485ZM43 41.416L28.4838 28.1103H57.5163L43 41.416ZM38.2567 40L26.7868 50.5134V29.4866L38.2567 40ZM39.8564 41.4664L42.2794 43.6786C42.6924 44.0565 43.3256 44.0565 43.7386 43.6786L46.1526 41.4664L57.5163 51.8897H28.4856L39.8564 41.4664ZM47.7433 40L59.2132 29.4866V50.5134L47.7433 40Z" fill="#170B30"/>
</svg>
