<svg width="85" height="79" viewBox="0 0 85 79" fill="none" xmlns="http://www.w3.org/2000/svg">
<path d="M85 39.5C85 61.3152 65.9721 79 42.5 79C19.0279 79 0 61.3152 0 39.5C0 17.6848 19.0279 0 42.5 0C65.9721 0 85 17.6848 85 39.5Z" fill="#F0F0F0" fill-opacity="0.8"/>
<path d="M55.8707 26.1394C52.4336 22.6079 47.8563 20.6656 42.9918 20.6656C32.9512 20.6656 24.7809 29.0402 24.7809 39.3318C24.7809 42.6194 25.6176 45.8314 27.209 48.6649L24.625 58.3344L34.2801 55.7362C36.9379 57.2245 39.932 58.0065 42.9836 58.0065H42.9918C53.0242 58.0065 61.375 49.6319 61.375 39.3402C61.375 34.3542 59.3078 29.6708 55.8707 26.1394ZM42.9918 54.8618C40.2684 54.8618 37.6023 54.1135 35.2809 52.7009L34.7313 52.3646L29.0055 53.9033L30.5312 48.1773L30.1703 47.5887C28.6527 45.1167 27.857 42.2663 27.857 39.3318C27.857 30.7807 34.6492 23.8187 43 23.8187C47.0441 23.8187 50.8422 25.4331 53.6969 28.3675C56.5516 31.302 58.307 35.195 58.2988 39.3402C58.2988 47.8998 51.3344 54.8618 42.9918 54.8618ZM51.2934 43.2417C50.8422 43.0062 48.6027 41.8795 48.1844 41.7282C47.766 41.5684 47.4625 41.4927 47.159 41.9636C46.8555 42.4345 45.9859 43.4771 45.7152 43.7966C45.4527 44.1077 45.182 44.1497 44.7309 43.9143C42.0566 42.5438 40.3012 41.4675 38.5375 38.3649C38.0699 37.5409 39.0051 37.5997 39.8746 35.8172C40.0223 35.5061 39.9484 35.237 39.8336 35.0016C39.7188 34.7662 38.8082 32.4707 38.4309 31.5374C38.0617 30.6293 37.6844 30.7555 37.4055 30.7387C37.143 30.7218 36.8395 30.7218 36.5359 30.7218C36.2324 30.7218 35.7402 30.8396 35.3219 31.302C34.9035 31.7729 33.7305 32.8996 33.7305 35.195C33.7305 37.4904 35.3629 39.7102 35.5844 40.0213C35.8141 40.3324 38.7918 45.041 43.3609 47.0674C46.2484 48.3454 47.3805 48.4547 48.8242 48.2361C49.702 48.1016 51.5148 47.1094 51.8922 46.0164C52.2695 44.9233 52.2695 43.99 52.1547 43.7966C52.048 43.5864 51.7445 43.4687 51.2934 43.2417Z" fill="#170B30"/>
</svg>
