<svg width="85" height="79" viewBox="0 0 85 79" fill="none" xmlns="http://www.w3.org/2000/svg">
<path d="M85 39.5C85 61.3152 65.9721 79 42.5 79C19.0279 79 0 61.3152 0 39.5C0 17.6848 19.0279 0 42.5 0C65.9721 0 85 17.6848 85 39.5Z" fill="#F0F0F0" fill-opacity="0.8"/>
<path d="M54.2266 55.4612H45.3046C46.8915 54.1012 48.378 52.6283 49.7526 51.054C54.1712 45.9724 56.5068 40.6303 56.5068 35.5911C56.5068 24.8087 44.8345 18.0697 35.4966 23.4609C31.1629 25.963 28.4932 30.587 28.4932 35.5911C28.4932 40.6254 30.8288 45.9724 35.2474 51.054C36.622 52.6283 38.1085 54.1012 39.6954 55.4612H30.7734C30.0211 55.4612 29.551 56.2755 29.9271 56.927C30.1017 57.2294 30.4243 57.4156 30.7734 57.4156H54.2266C54.9789 57.4156 55.449 56.6013 55.0729 55.9498C54.8983 55.6475 54.5757 55.4612 54.2266 55.4612ZM30.4477 35.5911C30.4477 26.3132 40.4913 20.5146 48.5262 25.1535C52.2552 27.3064 54.5523 31.2852 54.5523 35.5911C54.5523 45.3014 44.943 53.3325 42.5 55.2185C40.057 53.3325 30.4477 45.3014 30.4477 35.5911ZM48.689 35.5911C48.689 30.8268 43.5315 27.8491 39.4055 30.2313C35.2795 32.6134 35.2795 38.5688 39.4055 40.951C40.3463 41.4942 41.4136 41.7802 42.5 41.7802C45.9181 41.7802 48.689 39.0092 48.689 35.5911ZM38.2654 35.5911C38.2654 32.3313 41.7942 30.294 44.6173 31.9239C47.4404 33.5538 47.4404 37.6285 44.6173 39.2584C43.9736 39.6301 43.2433 39.8257 42.5 39.8257C40.1613 39.8257 38.2654 37.9298 38.2654 35.5911Z" fill="#170B30"/>
</svg>
