<svg width="80" height="80" viewBox="0 0 80 80" fill="none" xmlns="http://www.w3.org/2000/svg">
<path d="M19.2052 38.1818L12.1257 45.3091V58.1818H0V7.27273H12.1257V31.0545L35.4732 7.27273H49.0299L27.1886 29.9636L50.3102 58.1818H36.0757L19.2052 38.1818Z" fill="white"/>
<path d="M56.8347 35.3324C52.3219 35.3324 48.9104 36.2921 46.6002 38.2116C44.29 40.0793 43.135 42.9067 43.135 46.6938V50.04H66.3439V60.1564H43.135V80H30.0799V46.7716C30.0799 39.768 32.3364 34.3207 36.8492 30.4298C41.4158 26.5389 47.7821 24.5935 55.9483 24.5935C59.1717 24.5935 62.2072 24.9307 65.0546 25.6051C67.902 26.2276 70.3733 27.1615 72.4685 28.4065L68.4392 38.3673C65.2157 36.344 61.3476 35.3324 56.8347 35.3324Z" fill="white"/>
<path d="M64.3662 35.3324C59.8533 35.3324 56.4418 36.2921 54.1317 38.2116C51.8215 40.0793 50.6664 42.9067 50.6664 46.6938V50.04H73.8754V60.1564H50.6664V80H37.6114V46.7716C37.6114 39.768 39.8678 34.3207 44.3807 30.4298C48.9473 26.5389 55.3136 24.5935 63.4797 24.5935C66.7032 24.5935 69.7386 24.9307 72.586 25.6051C75.4334 26.2276 77.9047 27.1615 80 28.4065L75.9707 38.3673C72.7472 36.344 68.879 35.3324 64.3662 35.3324Z" fill="white" fill-opacity="0.54"/>
<path d="M19.2052 30.9091L12.1257 38.0364V50.9091H0V0H12.1257V23.7818L35.4732 0H49.0299L27.1886 22.6909L50.3102 50.9091H36.0757L19.2052 30.9091Z" fill="white" fill-opacity="0.54"/>
</svg>
