<?xml version="1.0" encoding="UTF-8"?>
<svg xmlns="http://www.w3.org/2000/svg" xmlns:xlink="http://www.w3.org/1999/xlink" width="20px" height="20px" viewBox="0 0 20 20" version="1.1">
<g id="surface1">
<path style=" stroke:none;fill-rule:nonzero;fill:rgb(21.176471%,60.392157%,97.254902%);fill-opacity:1;" d="M 10 19.382812 C 9.742188 19.382812 9.5 19.316406 9.277344 19.195312 L 6.984375 17.832031 C 6.636719 17.640625 6.808594 17.574219 6.914062 17.539062 C 7.378906 17.382812 7.464844 17.347656 7.949219 17.074219 C 8 17.039062 8.070312 17.054688 8.121094 17.089844 L 9.878906 18.140625 C 9.949219 18.175781 10.035156 18.175781 10.085938 18.140625 L 16.964844 14.160156 C 17.035156 14.125 17.070312 14.054688 17.070312 13.96875 L 17.070312 6.023438 C 17.070312 5.933594 17.035156 5.867188 16.964844 5.832031 L 10.085938 1.867188 C 10.015625 1.832031 9.929688 1.832031 9.878906 1.867188 L 3 5.832031 C 2.929688 5.867188 2.898438 5.953125 2.898438 6.023438 L 2.898438 13.96875 C 2.898438 14.039062 2.929688 14.125 3 14.160156 L 4.878906 15.246094 C 5.898438 15.761719 6.535156 15.160156 6.535156 14.554688 L 6.535156 6.710938 C 6.535156 6.609375 6.621094 6.503906 6.742188 6.503906 L 7.621094 6.503906 C 7.722656 6.503906 7.828125 6.589844 7.828125 6.710938 L 7.828125 14.554688 C 7.828125 15.917969 7.085938 16.710938 5.792969 16.710938 C 5.398438 16.710938 5.085938 16.710938 4.207031 16.28125 L 2.398438 15.246094 C 1.949219 14.988281 1.671875 14.503906 1.671875 13.988281 L 1.671875 6.039062 C 1.671875 5.523438 1.949219 5.039062 2.398438 4.78125 L 9.277344 0.796875 C 9.707031 0.554688 10.292969 0.554688 10.722656 0.796875 L 17.605469 4.78125 C 18.050781 5.039062 18.328125 5.523438 18.328125 6.039062 L 18.328125 13.988281 C 18.328125 14.503906 18.050781 14.988281 17.605469 15.246094 L 10.722656 19.226562 C 10.5 19.332031 10.242188 19.382812 10 19.382812 Z M 12.121094 13.917969 C 9.101562 13.917969 8.484375 12.539062 8.484375 11.367188 C 8.484375 11.261719 8.570312 11.160156 8.691406 11.160156 L 9.585938 11.160156 C 9.691406 11.160156 9.777344 11.226562 9.777344 11.332031 C 9.914062 12.246094 10.308594 12.695312 12.136719 12.695312 C 13.585938 12.695312 14.207031 12.367188 14.207031 11.589844 C 14.207031 11.140625 14.035156 10.816406 11.777344 10.589844 C 9.898438 10.402344 8.722656 9.988281 8.722656 8.488281 C 8.722656 7.089844 9.898438 6.261719 11.863281 6.261719 C 14.070312 6.261719 15.15625 7.023438 15.292969 8.675781 C 15.292969 8.726562 15.277344 8.78125 15.242188 8.832031 C 15.207031 8.867188 15.15625 8.902344 15.101562 8.902344 L 14.207031 8.902344 C 14.121094 8.902344 14.035156 8.832031 14.015625 8.746094 C 13.808594 7.796875 13.277344 7.488281 11.863281 7.488281 C 10.277344 7.488281 10.085938 8.039062 10.085938 8.453125 C 10.085938 8.953125 10.308594 9.109375 12.449219 9.382812 C 14.570312 9.660156 15.570312 10.054688 15.570312 11.539062 C 15.550781 13.054688 14.308594 13.917969 12.121094 13.917969 Z M 12.121094 13.917969 "/>
</g>
</svg>
