<svg width="727" height="184" viewBox="0 0 727 184" fill="none" xmlns="http://www.w3.org/2000/svg">
<path d="M1 108.12V24.12H37.36C44.88 24.12 51.36 25.36 56.8 27.84C62.24 30.24 66.44 33.72 69.4 38.28C72.36 42.84 73.84 48.28 73.84 54.6C73.84 60.84 72.36 66.24 69.4 70.8C66.44 75.36 62.24 78.88 56.8 81.36C51.36 83.76 44.88 84.96 37.36 84.96H11.8L20.44 76.2V108.12H1ZM20.44 78.36L11.8 69.12H36.28C42.28 69.12 46.76 67.84 49.72 65.28C52.68 62.72 54.16 59.16 54.16 54.6C54.16 49.96 52.68 46.36 49.72 43.8C46.76 41.24 42.28 39.96 36.28 39.96H11.8L20.44 30.72V78.36Z" fill="#C0ACEB" fill-opacity="0.2"/>
<path d="M129.691 109.56C123.051 109.56 116.891 108.48 111.211 106.32C105.611 104.16 100.731 101.12 96.5706 97.2C92.4906 93.28 89.2906 88.68 86.9706 83.4C84.7306 78.12 83.6106 72.36 83.6106 66.12C83.6106 59.88 84.7306 54.12 86.9706 48.84C89.2906 43.56 92.5306 38.96 96.6906 35.04C100.851 31.12 105.731 28.08 111.331 25.92C116.931 23.76 123.011 22.68 129.571 22.68C136.211 22.68 142.291 23.76 147.811 25.92C153.411 28.08 158.251 31.12 162.331 35.04C166.491 38.96 169.731 43.56 172.051 48.84C174.371 54.04 175.531 59.8 175.531 66.12C175.531 72.36 174.371 78.16 172.051 83.52C169.731 88.8 166.491 93.4 162.331 97.32C158.251 101.16 153.411 104.16 147.811 106.32C142.291 108.48 136.251 109.56 129.691 109.56ZM129.571 93C133.331 93 136.771 92.36 139.891 91.08C143.091 89.8 145.891 87.96 148.291 85.56C150.691 83.16 152.531 80.32 153.811 77.04C155.171 73.76 155.851 70.12 155.851 66.12C155.851 62.12 155.171 58.48 153.811 55.2C152.531 51.92 150.691 49.08 148.291 46.68C145.971 44.28 143.211 42.44 140.011 41.16C136.811 39.88 133.331 39.24 129.571 39.24C125.811 39.24 122.331 39.88 119.131 41.16C116.011 42.44 113.251 44.28 110.851 46.68C108.451 49.08 106.571 51.92 105.211 55.2C103.931 58.48 103.291 62.12 103.291 66.12C103.291 70.04 103.931 73.68 105.211 77.04C106.571 80.32 108.411 83.16 110.731 85.56C113.131 87.96 115.931 89.8 119.131 91.08C122.331 92.36 125.811 93 129.571 93Z" fill="#C0ACEB" fill-opacity="0.2"/>
<path d="M190.141 108.12V24.12H226.501C234.021 24.12 240.501 25.36 245.941 27.84C251.381 30.24 255.581 33.72 258.541 38.28C261.501 42.84 262.981 48.28 262.981 54.6C262.981 60.84 261.501 66.24 258.541 70.8C255.581 75.28 251.381 78.72 245.941 81.12C240.501 83.52 234.021 84.72 226.501 84.72H200.941L209.581 76.2V108.12H190.141ZM243.541 108.12L222.541 77.64H243.301L264.541 108.12H243.541ZM209.581 78.36L200.941 69.24H225.421C231.421 69.24 235.901 67.96 238.861 65.4C241.821 62.76 243.301 59.16 243.301 54.6C243.301 49.96 241.821 46.36 238.861 43.8C235.901 41.24 231.421 39.96 225.421 39.96H200.941L209.581 30.72V78.36Z" fill="#C0ACEB" fill-opacity="0.2"/>
<path d="M294.611 108.12V39.96H267.731V24.12H340.931V39.96H314.051V108.12H294.611Z" fill="#C0ACEB" fill-opacity="0.2"/>
<path d="M369.391 61.92H409.711V77.52H369.391V61.92ZM370.831 108.12H351.391V24.12H414.871V39.72H370.831V108.12Z" fill="#C0ACEB" fill-opacity="0.2"/>
<path d="M468.011 109.56C461.371 109.56 455.211 108.48 449.531 106.32C443.931 104.16 439.051 101.12 434.891 97.2C430.811 93.28 427.611 88.68 425.291 83.4C423.051 78.12 421.931 72.36 421.931 66.12C421.931 59.88 423.051 54.12 425.291 48.84C427.611 43.56 430.851 38.96 435.011 35.04C439.171 31.12 444.051 28.08 449.651 25.92C455.251 23.76 461.331 22.68 467.891 22.68C474.531 22.68 480.611 23.76 486.131 25.92C491.731 28.08 496.571 31.12 500.651 35.04C504.811 38.96 508.051 43.56 510.371 48.84C512.691 54.04 513.851 59.8 513.851 66.12C513.851 72.36 512.691 78.16 510.371 83.52C508.051 88.8 504.811 93.4 500.651 97.32C496.571 101.16 491.731 104.16 486.131 106.32C480.611 108.48 474.571 109.56 468.011 109.56ZM467.891 93C471.651 93 475.091 92.36 478.211 91.08C481.411 89.8 484.211 87.96 486.611 85.56C489.011 83.16 490.851 80.32 492.131 77.04C493.491 73.76 494.171 70.12 494.171 66.12C494.171 62.12 493.491 58.48 492.131 55.2C490.851 51.92 489.011 49.08 486.611 46.68C484.291 44.28 481.531 42.44 478.331 41.16C475.131 39.88 471.651 39.24 467.891 39.24C464.131 39.24 460.651 39.88 457.451 41.16C454.331 42.44 451.571 44.28 449.171 46.68C446.771 49.08 444.891 51.92 443.531 55.2C442.251 58.48 441.611 62.12 441.611 66.12C441.611 70.04 442.251 73.68 443.531 77.04C444.891 80.32 446.731 83.16 449.051 85.56C451.451 87.96 454.251 89.8 457.451 91.08C460.651 92.36 464.131 93 467.891 93ZM456.971 17.28L473.171 0H493.331L471.611 17.28H456.971Z" fill="#C0ACEB" fill-opacity="0.2"/>
<path d="M528.461 108.12V24.12H547.901V92.28H590.021V108.12H528.461Z" fill="#C0ACEB" fill-opacity="0.2"/>
<path d="M600.883 108.12V24.12H620.323V108.12H600.883Z" fill="#C0ACEB" fill-opacity="0.2"/>
<path d="M681.058 109.56C674.418 109.56 668.258 108.48 662.578 106.32C656.978 104.16 652.098 101.12 647.938 97.2C643.858 93.28 640.658 88.68 638.338 83.4C636.098 78.12 634.978 72.36 634.978 66.12C634.978 59.88 636.098 54.12 638.338 48.84C640.658 43.56 643.898 38.96 648.058 35.04C652.218 31.12 657.098 28.08 662.698 25.92C668.298 23.76 674.378 22.68 680.938 22.68C687.578 22.68 693.658 23.76 699.178 25.92C704.778 28.08 709.618 31.12 713.698 35.04C717.858 38.96 721.098 43.56 723.418 48.84C725.738 54.04 726.898 59.8 726.898 66.12C726.898 72.36 725.738 78.16 723.418 83.52C721.098 88.8 717.858 93.4 713.698 97.32C709.618 101.16 704.778 104.16 699.178 106.32C693.658 108.48 687.618 109.56 681.058 109.56ZM680.938 93C684.698 93 688.138 92.36 691.258 91.08C694.458 89.8 697.258 87.96 699.658 85.56C702.058 83.16 703.898 80.32 705.178 77.04C706.538 73.76 707.218 70.12 707.218 66.12C707.218 62.12 706.538 58.48 705.178 55.2C703.898 51.92 702.058 49.08 699.658 46.68C697.338 44.28 694.578 42.44 691.378 41.16C688.178 39.88 684.698 39.24 680.938 39.24C677.178 39.24 673.698 39.88 670.498 41.16C667.378 42.44 664.618 44.28 662.218 46.68C659.818 49.08 657.938 51.92 656.578 55.2C655.298 58.48 654.658 62.12 654.658 66.12C654.658 70.04 655.298 73.68 656.578 77.04C657.938 80.32 659.778 83.16 662.098 85.56C664.498 87.96 667.298 89.8 670.498 91.08C673.698 92.36 677.178 93 680.938 93Z" fill="#C0ACEB" fill-opacity="0.2"/>
<path d="M1 181.682V97.6823H37.36C44.88 97.6823 51.36 98.9223 56.8 101.402C62.24 103.802 66.44 107.282 69.4 111.842C72.36 116.402 73.84 121.842 73.84 128.162C73.84 134.402 72.36 139.802 69.4 144.362C66.44 148.922 62.24 152.442 56.8 154.922C51.36 157.322 44.88 158.522 37.36 158.522H11.8L20.44 149.762V181.682H1ZM20.44 151.922L11.8 142.682H36.28C42.28 142.682 46.76 141.402 49.72 138.842C52.68 136.282 54.16 132.722 54.16 128.162C54.16 123.522 52.68 119.922 49.72 117.362C46.76 114.802 42.28 113.522 36.28 113.522H11.8L20.44 104.282V151.922Z" fill="#C0ACEB" fill-opacity="0.2"/>
<path d="M129.691 183.122C123.051 183.122 116.891 182.042 111.211 179.882C105.611 177.722 100.731 174.682 96.5706 170.762C92.4906 166.842 89.2906 162.242 86.9706 156.962C84.7306 151.682 83.6106 145.922 83.6106 139.682C83.6106 133.442 84.7306 127.682 86.9706 122.402C89.2906 117.122 92.5306 112.522 96.6906 108.602C100.851 104.682 105.731 101.642 111.331 99.4823C116.931 97.3223 123.011 96.2423 129.571 96.2423C136.211 96.2423 142.291 97.3223 147.811 99.4823C153.411 101.642 158.251 104.682 162.331 108.602C166.491 112.522 169.731 117.122 172.051 122.402C174.371 127.602 175.531 133.362 175.531 139.682C175.531 145.922 174.371 151.722 172.051 157.082C169.731 162.362 166.491 166.962 162.331 170.882C158.251 174.722 153.411 177.722 147.811 179.882C142.291 182.042 136.251 183.122 129.691 183.122ZM129.571 166.562C133.331 166.562 136.771 165.922 139.891 164.642C143.091 163.362 145.891 161.522 148.291 159.122C150.691 156.722 152.531 153.882 153.811 150.602C155.171 147.322 155.851 143.682 155.851 139.682C155.851 135.682 155.171 132.042 153.811 128.762C152.531 125.482 150.691 122.642 148.291 120.242C145.971 117.842 143.211 116.002 140.011 114.722C136.811 113.442 133.331 112.802 129.571 112.802C125.811 112.802 122.331 113.442 119.131 114.722C116.011 116.002 113.251 117.842 110.851 120.242C108.451 122.642 106.571 125.482 105.211 128.762C103.931 132.042 103.291 135.682 103.291 139.682C103.291 143.602 103.931 147.242 105.211 150.602C106.571 153.882 108.411 156.722 110.731 159.122C113.131 161.522 115.931 163.362 119.131 164.642C122.331 165.922 125.811 166.562 129.571 166.562Z" fill="#C0ACEB" fill-opacity="0.2"/>
<path d="M190.141 181.682V97.6823H226.501C234.021 97.6823 240.501 98.9223 245.941 101.402C251.381 103.802 255.581 107.282 258.541 111.842C261.501 116.402 262.981 121.842 262.981 128.162C262.981 134.402 261.501 139.802 258.541 144.362C255.581 148.842 251.381 152.282 245.941 154.682C240.501 157.082 234.021 158.282 226.501 158.282H200.941L209.581 149.762V181.682H190.141ZM243.541 181.682L222.541 151.202H243.301L264.541 181.682H243.541ZM209.581 151.922L200.941 142.802H225.421C231.421 142.802 235.901 141.522 238.861 138.962C241.821 136.322 243.301 132.722 243.301 128.162C243.301 123.522 241.821 119.922 238.861 117.362C235.901 114.802 231.421 113.522 225.421 113.522H200.941L209.581 104.282V151.922Z" fill="#C0ACEB" fill-opacity="0.2"/>
<path d="M294.611 181.682V113.522H267.731V97.6823H340.931V113.522H314.051V181.682H294.611Z" fill="#C0ACEB" fill-opacity="0.2"/>
<path d="M369.391 135.482H409.711V151.082H369.391V135.482ZM370.831 181.682H351.391V97.6823H414.871V113.282H370.831V181.682Z" fill="#C0ACEB" fill-opacity="0.2"/>
<path d="M468.011 183.122C461.371 183.122 455.211 182.042 449.531 179.882C443.931 177.722 439.051 174.682 434.891 170.762C430.811 166.842 427.611 162.242 425.291 156.962C423.051 151.682 421.931 145.922 421.931 139.682C421.931 133.442 423.051 127.682 425.291 122.402C427.611 117.122 430.851 112.522 435.011 108.602C439.171 104.682 444.051 101.642 449.651 99.4823C455.251 97.3223 461.331 96.2423 467.891 96.2423C474.531 96.2423 480.611 97.3223 486.131 99.4823C491.731 101.642 496.571 104.682 500.651 108.602C504.811 112.522 508.051 117.122 510.371 122.402C512.691 127.602 513.851 133.362 513.851 139.682C513.851 145.922 512.691 151.722 510.371 157.082C508.051 162.362 504.811 166.962 500.651 170.882C496.571 174.722 491.731 177.722 486.131 179.882C480.611 182.042 474.571 183.122 468.011 183.122ZM467.891 166.562C471.651 166.562 475.091 165.922 478.211 164.642C481.411 163.362 484.211 161.522 486.611 159.122C489.011 156.722 490.851 153.882 492.131 150.602C493.491 147.322 494.171 143.682 494.171 139.682C494.171 135.682 493.491 132.042 492.131 128.762C490.851 125.482 489.011 122.642 486.611 120.242C484.291 117.842 481.531 116.002 478.331 114.722C475.131 113.442 471.651 112.802 467.891 112.802C464.131 112.802 460.651 113.442 457.451 114.722C454.331 116.002 451.571 117.842 449.171 120.242C446.771 122.642 444.891 125.482 443.531 128.762C442.251 132.042 441.611 135.682 441.611 139.682C441.611 143.602 442.251 147.242 443.531 150.602C444.891 153.882 446.731 156.722 449.051 159.122C451.451 161.522 454.251 163.362 457.451 164.642C460.651 165.922 464.131 166.562 467.891 166.562ZM456.971 90.8423L473.171 73.5623H493.331L471.611 90.8423H456.971Z" fill="#C0ACEB" fill-opacity="0.2"/>
<path d="M528.461 181.682V97.6823H547.901V165.842H590.021V181.682H528.461Z" fill="#C0ACEB" fill-opacity="0.2"/>
<path d="M600.883 181.682V97.6823H620.323V181.682H600.883Z" fill="#C0ACEB" fill-opacity="0.2"/>
<path d="M681.058 183.122C674.418 183.122 668.258 182.042 662.578 179.882C656.978 177.722 652.098 174.682 647.938 170.762C643.858 166.842 640.658 162.242 638.338 156.962C636.098 151.682 634.978 145.922 634.978 139.682C634.978 133.442 636.098 127.682 638.338 122.402C640.658 117.122 643.898 112.522 648.058 108.602C652.218 104.682 657.098 101.642 662.698 99.4823C668.298 97.3223 674.378 96.2423 680.938 96.2423C687.578 96.2423 693.658 97.3223 699.178 99.4823C704.778 101.642 709.618 104.682 713.698 108.602C717.858 112.522 721.098 117.122 723.418 122.402C725.738 127.602 726.898 133.362 726.898 139.682C726.898 145.922 725.738 151.722 723.418 157.082C721.098 162.362 717.858 166.962 713.698 170.882C709.618 174.722 704.778 177.722 699.178 179.882C693.658 182.042 687.618 183.122 681.058 183.122ZM680.938 166.562C684.698 166.562 688.138 165.922 691.258 164.642C694.458 163.362 697.258 161.522 699.658 159.122C702.058 156.722 703.898 153.882 705.178 150.602C706.538 147.322 707.218 143.682 707.218 139.682C707.218 135.682 706.538 132.042 705.178 128.762C703.898 125.482 702.058 122.642 699.658 120.242C697.338 117.842 694.578 116.002 691.378 114.722C688.178 113.442 684.698 112.802 680.938 112.802C677.178 112.802 673.698 113.442 670.498 114.722C667.378 116.002 664.618 117.842 662.218 120.242C659.818 122.642 657.938 125.482 656.578 128.762C655.298 132.042 654.658 135.682 654.658 139.682C654.658 143.602 655.298 147.242 656.578 150.602C657.938 153.882 659.778 156.722 662.098 159.122C664.498 161.522 667.298 163.362 670.498 164.642C673.698 165.922 677.178 166.562 680.938 166.562Z" fill="#C0ACEB" fill-opacity="0.2"/>
<path d="M0 147.386V63.3864H36.36C43.88 63.3864 50.36 64.6264 55.8 67.1064C61.24 69.5064 65.44 72.9864 68.4 77.5464C71.36 82.1064 72.84 87.5464 72.84 93.8664C72.84 100.106 71.36 105.506 68.4 110.066C65.44 114.626 61.24 118.146 55.8 120.626C50.36 123.026 43.88 124.226 36.36 124.226H10.8L19.44 115.466V147.386H0ZM19.44 117.626L10.8 108.386H35.28C41.28 108.386 45.76 107.106 48.72 104.546C51.68 101.986 53.16 98.4264 53.16 93.8664C53.16 89.2264 51.68 85.6264 48.72 83.0664C45.76 80.5064 41.28 79.2264 35.28 79.2264H10.8L19.44 69.9864V117.626Z" fill="#C0ACEB" fill-opacity="0.6"/>
<path d="M128.691 148.826C122.051 148.826 115.891 147.746 110.211 145.586C104.611 143.426 99.7306 140.386 95.5706 136.466C91.4906 132.546 88.2906 127.946 85.9706 122.666C83.7306 117.386 82.6106 111.626 82.6106 105.386C82.6106 99.1464 83.7306 93.3864 85.9706 88.1064C88.2906 82.8264 91.5306 78.2264 95.6906 74.3064C99.8506 70.3864 104.731 67.3464 110.331 65.1864C115.931 63.0264 122.011 61.9464 128.571 61.9464C135.211 61.9464 141.291 63.0264 146.811 65.1864C152.411 67.3464 157.251 70.3864 161.331 74.3064C165.491 78.2264 168.731 82.8264 171.051 88.1064C173.371 93.3064 174.531 99.0664 174.531 105.386C174.531 111.626 173.371 117.426 171.051 122.786C168.731 128.066 165.491 132.666 161.331 136.586C157.251 140.426 152.411 143.426 146.811 145.586C141.291 147.746 135.251 148.826 128.691 148.826ZM128.571 132.266C132.331 132.266 135.771 131.626 138.891 130.346C142.091 129.066 144.891 127.226 147.291 124.826C149.691 122.426 151.531 119.586 152.811 116.306C154.171 113.026 154.851 109.386 154.851 105.386C154.851 101.386 154.171 97.7464 152.811 94.4664C151.531 91.1864 149.691 88.3464 147.291 85.9464C144.971 83.5464 142.211 81.7064 139.011 80.4264C135.811 79.1464 132.331 78.5064 128.571 78.5064C124.811 78.5064 121.331 79.1464 118.131 80.4264C115.011 81.7064 112.251 83.5464 109.851 85.9464C107.451 88.3464 105.571 91.1864 104.211 94.4664C102.931 97.7464 102.291 101.386 102.291 105.386C102.291 109.306 102.931 112.946 104.211 116.306C105.571 119.586 107.411 122.426 109.731 124.826C112.131 127.226 114.931 129.066 118.131 130.346C121.331 131.626 124.811 132.266 128.571 132.266Z" fill="#C0ACEB" fill-opacity="0.6"/>
<path d="M189.141 147.386V63.3864H225.501C233.021 63.3864 239.501 64.6264 244.941 67.1064C250.381 69.5064 254.581 72.9864 257.541 77.5464C260.501 82.1064 261.981 87.5464 261.981 93.8664C261.981 100.106 260.501 105.506 257.541 110.066C254.581 114.546 250.381 117.986 244.941 120.386C239.501 122.786 233.021 123.986 225.501 123.986H199.941L208.581 115.466V147.386H189.141ZM242.541 147.386L221.541 116.906H242.301L263.541 147.386H242.541ZM208.581 117.626L199.941 108.506H224.421C230.421 108.506 234.901 107.226 237.861 104.666C240.821 102.026 242.301 98.4264 242.301 93.8664C242.301 89.2264 240.821 85.6264 237.861 83.0664C234.901 80.5064 230.421 79.2264 224.421 79.2264H199.941L208.581 69.9864V117.626Z" fill="#C0ACEB" fill-opacity="0.6"/>
<path d="M293.611 147.386V79.2264H266.731V63.3864H339.931V79.2264H313.051V147.386H293.611Z" fill="#C0ACEB" fill-opacity="0.6"/>
<path d="M368.391 101.186H408.711V116.786H368.391V101.186ZM369.831 147.386H350.391V63.3864H413.871V78.9864H369.831V147.386Z" fill="#C0ACEB" fill-opacity="0.6"/>
<path d="M467.011 148.826C460.371 148.826 454.211 147.746 448.531 145.586C442.931 143.426 438.051 140.386 433.891 136.466C429.811 132.546 426.611 127.946 424.291 122.666C422.051 117.386 420.931 111.626 420.931 105.386C420.931 99.1464 422.051 93.3864 424.291 88.1064C426.611 82.8264 429.851 78.2264 434.011 74.3064C438.171 70.3864 443.051 67.3464 448.651 65.1864C454.251 63.0264 460.331 61.9464 466.891 61.9464C473.531 61.9464 479.611 63.0264 485.131 65.1864C490.731 67.3464 495.571 70.3864 499.651 74.3064C503.811 78.2264 507.051 82.8264 509.371 88.1064C511.691 93.3064 512.851 99.0664 512.851 105.386C512.851 111.626 511.691 117.426 509.371 122.786C507.051 128.066 503.811 132.666 499.651 136.586C495.571 140.426 490.731 143.426 485.131 145.586C479.611 147.746 473.571 148.826 467.011 148.826ZM466.891 132.266C470.651 132.266 474.091 131.626 477.211 130.346C480.411 129.066 483.211 127.226 485.611 124.826C488.011 122.426 489.851 119.586 491.131 116.306C492.491 113.026 493.171 109.386 493.171 105.386C493.171 101.386 492.491 97.7464 491.131 94.4664C489.851 91.1864 488.011 88.3464 485.611 85.9464C483.291 83.5464 480.531 81.7064 477.331 80.4264C474.131 79.1464 470.651 78.5064 466.891 78.5064C463.131 78.5064 459.651 79.1464 456.451 80.4264C453.331 81.7064 450.571 83.5464 448.171 85.9464C445.771 88.3464 443.891 91.1864 442.531 94.4664C441.251 97.7464 440.611 101.386 440.611 105.386C440.611 109.306 441.251 112.946 442.531 116.306C443.891 119.586 445.731 122.426 448.051 124.826C450.451 127.226 453.251 129.066 456.451 130.346C459.651 131.626 463.131 132.266 466.891 132.266ZM455.971 56.5464L472.171 39.2664H492.331L470.611 56.5464H455.971Z" fill="#C0ACEB" fill-opacity="0.6"/>
<path d="M527.461 147.386V63.3864H546.901V131.546H589.021V147.386H527.461Z" fill="#C0ACEB" fill-opacity="0.6"/>
<path d="M599.883 147.386V63.3864H619.323V147.386H599.883Z" fill="#C0ACEB" fill-opacity="0.6"/>
<path d="M680.058 148.826C673.418 148.826 667.258 147.746 661.578 145.586C655.978 143.426 651.098 140.386 646.938 136.466C642.858 132.546 639.658 127.946 637.338 122.666C635.098 117.386 633.978 111.626 633.978 105.386C633.978 99.1464 635.098 93.3864 637.338 88.1064C639.658 82.8264 642.898 78.2264 647.058 74.3064C651.218 70.3864 656.098 67.3464 661.698 65.1864C667.298 63.0264 673.378 61.9464 679.938 61.9464C686.578 61.9464 692.658 63.0264 698.178 65.1864C703.778 67.3464 708.618 70.3864 712.698 74.3064C716.858 78.2264 720.098 82.8264 722.418 88.1064C724.738 93.3064 725.898 99.0664 725.898 105.386C725.898 111.626 724.738 117.426 722.418 122.786C720.098 128.066 716.858 132.666 712.698 136.586C708.618 140.426 703.778 143.426 698.178 145.586C692.658 147.746 686.618 148.826 680.058 148.826ZM679.938 132.266C683.698 132.266 687.138 131.626 690.258 130.346C693.458 129.066 696.258 127.226 698.658 124.826C701.058 122.426 702.898 119.586 704.178 116.306C705.538 113.026 706.218 109.386 706.218 105.386C706.218 101.386 705.538 97.7464 704.178 94.4664C702.898 91.1864 701.058 88.3464 698.658 85.9464C696.338 83.5464 693.578 81.7064 690.378 80.4264C687.178 79.1464 683.698 78.5064 679.938 78.5064C676.178 78.5064 672.698 79.1464 669.498 80.4264C666.378 81.7064 663.618 83.5464 661.218 85.9464C658.818 88.3464 656.938 91.1864 655.578 94.4664C654.298 97.7464 653.658 101.386 653.658 105.386C653.658 109.306 654.298 112.946 655.578 116.306C656.938 119.586 658.778 122.426 661.098 124.826C663.498 127.226 666.298 129.066 669.498 130.346C672.698 131.626 676.178 132.266 679.938 132.266Z" fill="#C0ACEB" fill-opacity="0.6"/>
<path d="M251.883 113.12V85.12H264.003C266.51 85.12 268.67 85.5333 270.483 86.36C272.297 87.16 273.697 88.32 274.683 89.84C275.67 91.36 276.163 93.1733 276.163 95.28C276.163 97.36 275.67 99.16 274.683 100.68C273.697 102.2 272.297 103.373 270.483 104.2C268.67 105 266.51 105.4 264.003 105.4H255.483L258.363 102.48V113.12H251.883ZM258.363 103.2L255.483 100.12H263.643C265.643 100.12 267.137 99.6933 268.123 98.84C269.11 97.9867 269.603 96.8 269.603 95.28C269.603 93.7333 269.11 92.5333 268.123 91.68C267.137 90.8267 265.643 90.4 263.643 90.4H255.483L258.363 87.32V103.2Z" fill="white"/>
<path d="M290.551 113.44C288.257 113.44 286.217 112.96 284.431 112C282.671 111.04 281.271 109.733 280.231 108.08C279.217 106.4 278.711 104.493 278.711 102.36C278.711 100.2 279.217 98.2933 280.231 96.64C281.271 94.96 282.671 93.6533 284.431 92.72C286.217 91.76 288.257 91.28 290.551 91.28C292.817 91.28 294.844 91.76 296.631 92.72C298.417 93.6533 299.817 94.9467 300.831 96.6C301.844 98.2533 302.351 100.173 302.351 102.36C302.351 104.493 301.844 106.4 300.831 108.08C299.817 109.733 298.417 111.04 296.631 112C294.844 112.96 292.817 113.44 290.551 113.44ZM290.551 108.32C291.591 108.32 292.524 108.08 293.351 107.6C294.177 107.12 294.831 106.44 295.311 105.56C295.791 104.653 296.031 103.587 296.031 102.36C296.031 101.107 295.791 100.04 295.311 99.16C294.831 98.28 294.177 97.6 293.351 97.12C292.524 96.64 291.591 96.4 290.551 96.4C289.511 96.4 288.577 96.64 287.751 97.12C286.924 97.6 286.257 98.28 285.751 99.16C285.271 100.04 285.031 101.107 285.031 102.36C285.031 103.587 285.271 104.653 285.751 105.56C286.257 106.44 286.924 107.12 287.751 107.6C288.577 108.08 289.511 108.32 290.551 108.32Z" fill="white"/>
<path d="M306.522 113.12V91.6H312.482V97.68L311.642 95.92C312.282 94.4 313.308 93.2533 314.722 92.48C316.135 91.68 317.855 91.28 319.882 91.28V97.04C319.615 97.0133 319.375 97 319.162 97C318.948 96.9733 318.722 96.96 318.482 96.96C316.775 96.96 315.388 97.4533 314.322 98.44C313.282 99.4 312.762 100.907 312.762 102.96V113.12H306.522Z" fill="white"/>
<path d="M333.134 113.44C330.601 113.44 328.627 112.8 327.214 111.52C325.801 110.213 325.094 108.28 325.094 105.72V86.84H331.334V105.64C331.334 106.547 331.574 107.253 332.054 107.76C332.534 108.24 333.187 108.48 334.014 108.48C335.001 108.48 335.841 108.213 336.534 107.68L338.214 112.08C337.574 112.533 336.801 112.88 335.894 113.12C335.014 113.333 334.094 113.44 333.134 113.44ZM321.774 96.88V92.08H336.694V96.88H321.774Z" fill="white"/>
<path d="M342.477 113.12V91.12C342.477 88.6933 343.197 86.76 344.637 85.32C346.077 83.8533 348.13 83.12 350.797 83.12C351.704 83.12 352.57 83.2133 353.397 83.4C354.25 83.5867 354.97 83.88 355.557 84.28L353.917 88.8C353.57 88.56 353.184 88.3733 352.757 88.24C352.33 88.1067 351.877 88.04 351.397 88.04C350.49 88.04 349.784 88.3067 349.277 88.84C348.797 89.3467 348.557 90.12 348.557 91.16V93.16L348.717 95.84V113.12H342.477ZM339.157 96.88V92.08H354.077V96.88H339.157Z" fill="white"/>
<path d="M367.152 113.44C364.859 113.44 362.819 112.96 361.032 112C359.272 111.04 357.872 109.733 356.832 108.08C355.819 106.4 355.312 104.493 355.312 102.36C355.312 100.2 355.819 98.2933 356.832 96.64C357.872 94.96 359.272 93.6533 361.032 92.72C362.819 91.76 364.859 91.28 367.152 91.28C369.419 91.28 371.446 91.76 373.232 92.72C375.019 93.6533 376.419 94.9467 377.432 96.6C378.446 98.2533 378.952 100.173 378.952 102.36C378.952 104.493 378.446 106.4 377.432 108.08C376.419 109.733 375.019 111.04 373.232 112C371.446 112.96 369.419 113.44 367.152 113.44ZM367.152 108.32C368.192 108.32 369.126 108.08 369.952 107.6C370.779 107.12 371.432 106.44 371.912 105.56C372.392 104.653 372.632 103.587 372.632 102.36C372.632 101.107 372.392 100.04 371.912 99.16C371.432 98.28 370.779 97.6 369.952 97.12C369.126 96.64 368.192 96.4 367.152 96.4C366.112 96.4 365.179 96.64 364.352 97.12C363.526 97.6 362.859 98.28 362.352 99.16C361.872 100.04 361.632 101.107 361.632 102.36C361.632 103.587 361.872 104.653 362.352 105.56C362.859 106.44 363.526 107.12 364.352 107.6C365.179 108.08 366.112 108.32 367.152 108.32ZM363.432 88.84L368.832 83.08H375.552L368.312 88.84H363.432Z" fill="white"/>
<path d="M383.123 113.12V83.44H389.363V113.12H383.123Z" fill="white"/>
<path d="M395.154 113.12V91.6H401.394V113.12H395.154ZM398.274 88.6C397.128 88.6 396.194 88.2667 395.474 87.6C394.754 86.9333 394.394 86.1067 394.394 85.12C394.394 84.1333 394.754 83.3067 395.474 82.64C396.194 81.9733 397.128 81.64 398.274 81.64C399.421 81.64 400.354 81.96 401.074 82.6C401.794 83.2133 402.154 84.0133 402.154 85C402.154 86.04 401.794 86.9067 401.074 87.6C400.381 88.2667 399.448 88.6 398.274 88.6Z" fill="white"/>
<path d="M417.426 113.44C415.132 113.44 413.092 112.96 411.306 112C409.546 111.04 408.146 109.733 407.106 108.08C406.092 106.4 405.586 104.493 405.586 102.36C405.586 100.2 406.092 98.2933 407.106 96.64C408.146 94.96 409.546 93.6533 411.306 92.72C413.092 91.76 415.132 91.28 417.426 91.28C419.692 91.28 421.719 91.76 423.506 92.72C425.292 93.6533 426.692 94.9467 427.706 96.6C428.719 98.2533 429.226 100.173 429.226 102.36C429.226 104.493 428.719 106.4 427.706 108.08C426.692 109.733 425.292 111.04 423.506 112C421.719 112.96 419.692 113.44 417.426 113.44ZM417.426 108.32C418.466 108.32 419.399 108.08 420.226 107.6C421.052 107.12 421.706 106.44 422.186 105.56C422.666 104.653 422.906 103.587 422.906 102.36C422.906 101.107 422.666 100.04 422.186 99.16C421.706 98.28 421.052 97.6 420.226 97.12C419.399 96.64 418.466 96.4 417.426 96.4C416.386 96.4 415.452 96.64 414.626 97.12C413.799 97.6 413.132 98.28 412.626 99.16C412.146 100.04 411.906 101.107 411.906 102.36C411.906 103.587 412.146 104.653 412.626 105.56C413.132 106.44 413.799 107.12 414.626 107.6C415.452 108.08 416.386 108.32 417.426 108.32Z" fill="white"/>
</svg>
