<svg width="430" height="131" viewBox="0 0 430 131" fill="none" xmlns="http://www.w3.org/2000/svg">
<path d="M34.56 87.44C27.84 87.44 21.4 86.56 15.24 84.8C9.07999 82.96 4.11999 80.6 0.359985 77.72L6.95999 63.08C10.56 65.64 14.8 67.76 19.68 69.44C24.64 71.04 29.64 71.84 34.68 71.84C38.52 71.84 41.6 71.48 43.92 70.76C46.32 69.96 48.08 68.88 49.2 67.52C50.32 66.16 50.88 64.6 50.88 62.84C50.88 60.6 50 58.84 48.24 57.56C46.48 56.2 44.16 55.12 41.28 54.32C38.4 53.44 35.2 52.64 31.68 51.92C28.24 51.12 24.76 50.16 21.24 49.04C17.8 47.92 14.64 46.48 11.76 44.72C8.87999 42.96 6.51999 40.64 4.67999 37.76C2.91999 34.88 2.03999 31.2 2.03999 26.72C2.03999 21.92 3.31999 17.56 5.87999 13.64C8.51999 9.63999 12.44 6.47999 17.64 4.15999C22.92 1.76 29.52 0.559998 37.44 0.559998C42.72 0.559998 47.92 1.2 53.04 2.47999C58.16 3.67999 62.68 5.51999 66.6 7.99999L60.6 22.76C56.68 20.52 52.76 18.88 48.84 17.84C44.92 16.72 41.08 16.16 37.32 16.16C33.56 16.16 30.48 16.6 28.08 17.48C25.68 18.36 23.96 19.52 22.92 20.96C21.88 22.32 21.36 23.92 21.36 25.76C21.36 27.92 22.24 29.68 24 31.04C25.76 32.32 28.08 33.36 30.96 34.16C33.84 34.96 37 35.76 40.44 36.56C43.96 37.36 47.44 38.28 50.88 39.32C54.4 40.36 57.6 41.76 60.48 43.52C63.36 45.28 65.68 47.6 67.44 50.48C69.28 53.36 70.2 57 70.2 61.4C70.2 66.12 68.88 70.44 66.24 74.36C63.6 78.28 59.64 81.44 54.36 83.84C49.16 86.24 42.56 87.44 34.56 87.44Z" fill="#C0ACEB" fill-opacity="0.2"/>
<path d="M124.283 87.44C117.643 87.44 111.483 86.36 105.803 84.2C100.203 82.04 95.3234 79 91.1634 75.08C87.0834 71.16 83.8834 66.56 81.5634 61.28C79.3234 56 78.2034 50.24 78.2034 44C78.2034 37.76 79.3234 32 81.5634 26.72C83.8834 21.44 87.1234 16.84 91.2834 12.92C95.4434 8.99999 100.323 5.95999 105.923 3.79999C111.523 1.64 117.603 0.559998 124.163 0.559998C130.803 0.559998 136.883 1.64 142.403 3.79999C148.003 5.95999 152.843 8.99999 156.923 12.92C161.083 16.84 164.323 21.44 166.643 26.72C168.963 31.92 170.123 37.68 170.123 44C170.123 50.24 168.963 56.04 166.643 61.4C164.323 66.68 161.083 71.28 156.923 75.2C152.843 79.04 148.003 82.04 142.403 84.2C136.883 86.36 130.843 87.44 124.283 87.44ZM124.163 70.88C127.923 70.88 131.363 70.24 134.483 68.96C137.683 67.68 140.483 65.84 142.883 63.44C145.283 61.04 147.123 58.2 148.403 54.92C149.763 51.64 150.443 48 150.443 44C150.443 40 149.763 36.36 148.403 33.08C147.123 29.8 145.283 26.96 142.883 24.56C140.563 22.16 137.803 20.32 134.603 19.04C131.403 17.76 127.923 17.12 124.163 17.12C120.403 17.12 116.923 17.76 113.723 19.04C110.603 20.32 107.843 22.16 105.443 24.56C103.043 26.96 101.163 29.8 99.8034 33.08C98.5234 36.36 97.8834 40 97.8834 44C97.8834 47.92 98.5234 51.56 99.8034 54.92C101.163 58.2 103.003 61.04 105.323 63.44C107.723 65.84 110.523 67.68 113.723 68.96C116.923 70.24 120.403 70.88 124.163 70.88Z" fill="#C0ACEB" fill-opacity="0.2"/>
<path d="M184.733 86V1.99999H225.773C236.333 1.99999 244.253 3.99999 249.533 7.99999C254.893 12 257.573 17.28 257.573 23.84C257.573 28.24 256.493 32.08 254.333 35.36C252.173 38.56 249.213 41.04 245.453 42.8C241.693 44.56 237.373 45.44 232.493 45.44L234.773 40.52C240.053 40.52 244.733 41.4 248.813 43.16C252.893 44.84 256.053 47.36 258.293 50.72C260.613 54.08 261.773 58.2 261.773 63.08C261.773 70.28 258.933 75.92 253.253 80C247.573 84 239.213 86 228.173 86H184.733ZM204.053 71.36H226.733C231.773 71.36 235.573 70.56 238.133 68.96C240.773 67.28 242.093 64.64 242.093 61.04C242.093 57.52 240.773 54.92 238.133 53.24C235.573 51.48 231.773 50.6 226.733 50.6H202.613V36.44H223.373C228.093 36.44 231.693 35.64 234.173 34.04C236.733 32.36 238.013 29.84 238.013 26.48C238.013 23.2 236.733 20.76 234.173 19.16C231.693 17.48 228.093 16.64 223.373 16.64H204.053V71.36Z" fill="#C0ACEB" fill-opacity="0.2"/>
<path d="M276.491 86V1.99999H312.851C320.371 1.99999 326.851 3.23999 332.291 5.72C337.731 8.11999 341.931 11.6 344.891 16.16C347.851 20.72 349.331 26.16 349.331 32.48C349.331 38.72 347.851 44.12 344.891 48.68C341.931 53.16 337.731 56.6 332.291 59C326.851 61.4 320.371 62.6 312.851 62.6H287.291L295.931 54.08V86H276.491ZM329.891 86L308.891 55.52H329.651L350.891 86H329.891ZM295.931 56.24L287.291 47.12H311.771C317.771 47.12 322.251 45.84 325.211 43.28C328.171 40.64 329.651 37.04 329.651 32.48C329.651 27.84 328.171 24.24 325.211 21.68C322.251 19.12 317.771 17.84 311.771 17.84H287.291L295.931 8.59999V56.24Z" fill="#C0ACEB" fill-opacity="0.2"/>
<path d="M382.613 35.84H423.053V50.96H382.613V35.84ZM384.053 70.4H429.773V86H364.733V1.99999H428.213V17.6H384.053V70.4Z" fill="#C0ACEB" fill-opacity="0.2"/>
<path d="M34.56 130.063C27.84 130.063 21.4 129.183 15.24 127.423C9.07999 125.583 4.11999 123.223 0.359985 120.343L6.95999 105.703C10.56 108.263 14.8 110.383 19.68 112.063C24.64 113.663 29.64 114.463 34.68 114.463C38.52 114.463 41.6 114.103 43.92 113.383C46.32 112.583 48.08 111.503 49.2 110.143C50.32 108.783 50.88 107.223 50.88 105.463C50.88 103.223 50 101.463 48.24 100.183C46.48 98.823 44.16 97.743 41.28 96.943C38.4 96.063 35.2 95.263 31.68 94.543C28.24 93.743 24.76 92.783 21.24 91.6629C17.8 90.5429 14.64 89.103 11.76 87.343C8.87999 85.583 6.51999 83.2629 4.67999 80.3829C2.91999 77.5029 2.03999 73.8229 2.03999 69.3429C2.03999 64.5429 3.31999 60.1829 5.87999 56.2629C8.51999 52.2629 12.44 49.103 17.64 46.783C22.92 44.383 29.52 43.183 37.44 43.183C42.72 43.183 47.92 43.823 53.04 45.103C58.16 46.3029 62.68 48.143 66.6 50.623L60.6 65.3829C56.68 63.143 52.76 61.503 48.84 60.463C44.92 59.343 41.08 58.783 37.32 58.783C33.56 58.783 30.48 59.223 28.08 60.103C25.68 60.983 23.96 62.143 22.92 63.5829C21.88 64.9429 21.36 66.5429 21.36 68.3829C21.36 70.543 22.24 72.3029 24 73.6629C25.76 74.9429 28.08 75.9829 30.96 76.783C33.84 77.583 37 78.383 40.44 79.183C43.96 79.983 47.44 80.9029 50.88 81.9429C54.4 82.9829 57.6 84.383 60.48 86.143C63.36 87.903 65.68 90.2229 67.44 93.103C69.28 95.9829 70.2 99.6229 70.2 104.023C70.2 108.743 68.88 113.063 66.24 116.983C63.6 120.903 59.64 124.063 54.36 126.463C49.16 128.863 42.56 130.063 34.56 130.063Z" fill="#C0ACEB" fill-opacity="0.2"/>
<path d="M124.283 130.063C117.643 130.063 111.483 128.983 105.803 126.823C100.203 124.663 95.3234 121.623 91.1634 117.703C87.0834 113.783 83.8834 109.183 81.5634 103.903C79.3234 98.623 78.2034 92.863 78.2034 86.623C78.2034 80.383 79.3234 74.6229 81.5634 69.3429C83.8834 64.063 87.1234 59.463 91.2834 55.5429C95.4434 51.6229 100.323 48.5829 105.923 46.4229C111.523 44.263 117.603 43.183 124.163 43.183C130.803 43.183 136.883 44.263 142.403 46.4229C148.003 48.5829 152.843 51.6229 156.923 55.5429C161.083 59.463 164.323 64.063 166.643 69.3429C168.963 74.5429 170.123 80.303 170.123 86.623C170.123 92.863 168.963 98.6629 166.643 104.023C164.323 109.303 161.083 113.903 156.923 117.823C152.843 121.663 148.003 124.663 142.403 126.823C136.883 128.983 130.843 130.063 124.283 130.063ZM124.163 113.503C127.923 113.503 131.363 112.863 134.483 111.583C137.683 110.303 140.483 108.463 142.883 106.063C145.283 103.663 147.123 100.823 148.403 97.543C149.763 94.263 150.443 90.623 150.443 86.623C150.443 82.623 149.763 78.983 148.403 75.7029C147.123 72.4229 145.283 69.583 142.883 67.183C140.563 64.783 137.803 62.943 134.603 61.663C131.403 60.383 127.923 59.743 124.163 59.743C120.403 59.743 116.923 60.383 113.723 61.663C110.603 62.943 107.843 64.783 105.443 67.183C103.043 69.583 101.163 72.4229 99.8034 75.7029C98.5234 78.983 97.8834 82.623 97.8834 86.623C97.8834 90.543 98.5234 94.183 99.8034 97.543C101.163 100.823 103.003 103.663 105.323 106.063C107.723 108.463 110.523 110.303 113.723 111.583C116.923 112.863 120.403 113.503 124.163 113.503Z" fill="#C0ACEB" fill-opacity="0.2"/>
<path d="M184.733 128.623V44.6229H225.773C236.333 44.6229 244.253 46.623 249.533 50.623C254.893 54.623 257.573 59.903 257.573 66.463C257.573 70.8629 256.493 74.7029 254.333 77.9829C252.173 81.1829 249.213 83.6629 245.453 85.423C241.693 87.1829 237.373 88.063 232.493 88.063L234.773 83.143C240.053 83.143 244.733 84.023 248.813 85.783C252.893 87.463 256.053 89.983 258.293 93.343C260.613 96.703 261.773 100.823 261.773 105.703C261.773 112.903 258.933 118.543 253.253 122.623C247.573 126.623 239.213 128.623 228.173 128.623H184.733ZM204.053 113.983H226.733C231.773 113.983 235.573 113.183 238.133 111.583C240.773 109.903 242.093 107.263 242.093 103.663C242.093 100.143 240.773 97.543 238.133 95.863C235.573 94.103 231.773 93.223 226.733 93.223H202.613V79.063H223.373C228.093 79.063 231.693 78.2629 234.173 76.6629C236.733 74.9829 238.013 72.463 238.013 69.103C238.013 65.823 236.733 63.383 234.173 61.783C231.693 60.103 228.093 59.263 223.373 59.263H204.053V113.983Z" fill="#C0ACEB" fill-opacity="0.2"/>
<path d="M276.491 128.623V44.6229H312.851C320.371 44.6229 326.851 45.8629 332.291 48.3429C337.731 50.7429 341.931 54.2229 344.891 58.783C347.851 63.3429 349.331 68.7829 349.331 75.103C349.331 81.3429 347.851 86.743 344.891 91.303C341.931 95.783 337.731 99.223 332.291 101.623C326.851 104.023 320.371 105.223 312.851 105.223H287.291L295.931 96.703V128.623H276.491ZM329.891 128.623L308.891 98.143H329.651L350.891 128.623H329.891ZM295.931 98.863L287.291 89.743H311.771C317.771 89.743 322.251 88.463 325.211 85.903C328.171 83.263 329.651 79.6629 329.651 75.103C329.651 70.463 328.171 66.863 325.211 64.303C322.251 61.743 317.771 60.463 311.771 60.463H287.291L295.931 51.2229V98.863Z" fill="#C0ACEB" fill-opacity="0.2"/>
<path d="M382.613 78.463H423.053V93.583H382.613V78.463ZM384.053 113.023H429.773V128.623H364.733V44.6229H428.213V60.2229H384.053V113.023Z" fill="#C0ACEB" fill-opacity="0.2"/>
<path d="M34.56 107.047C27.84 107.047 21.4 106.167 15.24 104.407C9.07999 102.567 4.11999 100.207 0.359985 97.3266L6.95999 82.6866C10.56 85.2466 14.8 87.3666 19.68 89.0466C24.64 90.6466 29.64 91.4465 34.68 91.4465C38.52 91.4465 41.6 91.0866 43.92 90.3666C46.32 89.5666 48.08 88.4865 49.2 87.1265C50.32 85.7665 50.88 84.2066 50.88 82.4466C50.88 80.2066 50 78.4465 48.24 77.1665C46.48 75.8066 44.16 74.7266 41.28 73.9266C38.4 73.0466 35.2 72.2466 31.68 71.5266C28.24 70.7266 24.76 69.7666 21.24 68.6466C17.8 67.5266 14.64 66.0866 11.76 64.3266C8.87999 62.5666 6.51999 60.2465 4.67999 57.3666C2.91999 54.4865 2.03999 50.8065 2.03999 46.3265C2.03999 41.5265 3.31999 37.1665 5.87999 33.2465C8.51999 29.2465 12.44 26.0865 17.64 23.7665C22.92 21.3666 29.52 20.1666 37.44 20.1666C42.72 20.1666 47.92 20.8066 53.04 22.0865C58.16 23.2865 62.68 25.1265 66.6 27.6065L60.6 42.3666C56.68 40.1266 52.76 38.4866 48.84 37.4466C44.92 36.3266 41.08 35.7666 37.32 35.7666C33.56 35.7666 30.48 36.2065 28.08 37.0865C25.68 37.9666 23.96 39.1266 22.92 40.5665C21.88 41.9265 21.36 43.5266 21.36 45.3666C21.36 47.5266 22.24 49.2866 24 50.6465C25.76 51.9265 28.08 52.9666 30.96 53.7666C33.84 54.5666 37 55.3666 40.44 56.1665C43.96 56.9666 47.44 57.8865 50.88 58.9265C54.4 59.9665 57.6 61.3666 60.48 63.1266C63.36 64.8866 65.68 67.2066 67.44 70.0866C69.28 72.9666 70.2 76.6066 70.2 81.0066C70.2 85.7266 68.88 90.0466 66.24 93.9666C63.6 97.8866 59.64 101.047 54.36 103.447C49.16 105.847 42.56 107.047 34.56 107.047Z" fill="#C0ACEB" fill-opacity="0.6"/>
<path d="M124.283 107.047C117.643 107.047 111.483 105.967 105.803 103.807C100.203 101.647 95.3234 98.6066 91.1634 94.6866C87.0834 90.7666 83.8834 86.1666 81.5634 80.8866C79.3234 75.6066 78.2034 69.8466 78.2034 63.6066C78.2034 57.3666 79.3234 51.6065 81.5634 46.3265C83.8834 41.0466 87.1234 36.4466 91.2834 32.5266C95.4434 28.6065 100.323 25.5665 105.923 23.4065C111.523 21.2465 117.603 20.1666 124.163 20.1666C130.803 20.1666 136.883 21.2465 142.403 23.4065C148.003 25.5665 152.843 28.6065 156.923 32.5266C161.083 36.4466 164.323 41.0466 166.643 46.3265C168.963 51.5265 170.123 57.2866 170.123 63.6066C170.123 69.8466 168.963 75.6466 166.643 81.0066C164.323 86.2866 161.083 90.8865 156.923 94.8065C152.843 98.6465 148.003 101.647 142.403 103.807C136.883 105.967 130.843 107.047 124.283 107.047ZM124.163 90.4865C127.923 90.4865 131.363 89.8466 134.483 88.5666C137.683 87.2866 140.483 85.4466 142.883 83.0466C145.283 80.6466 147.123 77.8065 148.403 74.5266C149.763 71.2465 150.443 67.6066 150.443 63.6066C150.443 59.6066 149.763 55.9666 148.403 52.6866C147.123 49.4065 145.283 46.5665 142.883 44.1665C140.563 41.7665 137.803 39.9265 134.603 38.6465C131.403 37.3666 127.923 36.7266 124.163 36.7266C120.403 36.7266 116.923 37.3666 113.723 38.6465C110.603 39.9265 107.843 41.7665 105.443 44.1665C103.043 46.5665 101.163 49.4065 99.8034 52.6866C98.5234 55.9666 97.8834 59.6066 97.8834 63.6066C97.8834 67.5266 98.5234 71.1665 99.8034 74.5266C101.163 77.8065 103.003 80.6466 105.323 83.0466C107.723 85.4466 110.523 87.2866 113.723 88.5666C116.923 89.8466 120.403 90.4865 124.163 90.4865Z" fill="#C0ACEB" fill-opacity="0.6"/>
<path d="M184.733 105.607V21.6065H225.773C236.333 21.6065 244.253 23.6065 249.533 27.6065C254.893 31.6065 257.573 36.8866 257.573 43.4466C257.573 47.8466 256.493 51.6865 254.333 54.9665C252.173 58.1665 249.213 60.6466 245.453 62.4066C241.693 64.1666 237.373 65.0465 232.493 65.0465L234.773 60.1266C240.053 60.1266 244.733 61.0066 248.813 62.7666C252.893 64.4466 256.053 66.9666 258.293 70.3266C260.613 73.6866 261.773 77.8066 261.773 82.6866C261.773 89.8866 258.933 95.5266 253.253 99.6066C247.573 103.607 239.213 105.607 228.173 105.607H184.733ZM204.053 90.9666H226.733C231.773 90.9666 235.573 90.1666 238.133 88.5666C240.773 86.8866 242.093 84.2466 242.093 80.6466C242.093 77.1266 240.773 74.5265 238.133 72.8465C235.573 71.0865 231.773 70.2066 226.733 70.2066H202.613V56.0466H223.373C228.093 56.0466 231.693 55.2466 234.173 53.6465C236.733 51.9665 238.013 49.4466 238.013 46.0866C238.013 42.8066 236.733 40.3666 234.173 38.7665C231.693 37.0866 228.093 36.2466 223.373 36.2466H204.053V90.9666Z" fill="#C0ACEB" fill-opacity="0.6"/>
<path d="M276.491 105.607V21.6065H312.851C320.371 21.6065 326.851 22.8465 332.291 25.3265C337.731 27.7265 341.931 31.2065 344.891 35.7666C347.851 40.3266 349.331 45.7665 349.331 52.0866C349.331 58.3266 347.851 63.7266 344.891 68.2866C341.931 72.7666 337.731 76.2066 332.291 78.6066C326.851 81.0066 320.371 82.2066 312.851 82.2066H287.291L295.931 73.6866V105.607H276.491ZM329.891 105.607L308.891 75.1265H329.651L350.891 105.607H329.891ZM295.931 75.8465L287.291 66.7266H311.771C317.771 66.7266 322.251 65.4466 325.211 62.8866C328.171 60.2465 329.651 56.6466 329.651 52.0866C329.651 47.4466 328.171 43.8466 325.211 41.2866C322.251 38.7266 317.771 37.4466 311.771 37.4466H287.291L295.931 28.2065V75.8465Z" fill="#C0ACEB" fill-opacity="0.6"/>
<path d="M382.613 55.4466H423.053V70.5666H382.613V55.4466ZM384.053 90.0066H429.773V105.607H364.733V21.6065H428.213V37.2065H384.053V90.0066Z" fill="#C0ACEB" fill-opacity="0.6"/>
<path d="M126.877 78.42C124.917 78.42 123.039 78.1633 121.242 77.65C119.445 77.1133 117.999 76.425 116.902 75.585L118.827 71.315C119.877 72.0617 121.114 72.68 122.537 73.17C123.984 73.6367 125.442 73.87 126.912 73.87C128.032 73.87 128.93 73.765 129.607 73.555C130.307 73.3217 130.82 73.0067 131.147 72.61C131.474 72.2133 131.637 71.7583 131.637 71.245C131.637 70.5917 131.38 70.0783 130.867 69.705C130.354 69.3083 129.677 68.9933 128.837 68.76C127.997 68.5033 127.064 68.27 126.037 68.06C125.034 67.8267 124.019 67.5467 122.992 67.22C121.989 66.8933 121.067 66.4733 120.227 65.96C119.387 65.4467 118.699 64.77 118.162 63.93C117.649 63.09 117.392 62.0167 117.392 60.71C117.392 59.31 117.765 58.0383 118.512 56.895C119.282 55.7283 120.425 54.8067 121.942 54.13C123.482 53.43 125.407 53.08 127.717 53.08C129.257 53.08 130.774 53.2667 132.267 53.64C133.76 53.99 135.079 54.5267 136.222 55.25L134.472 59.555C133.329 58.9017 132.185 58.4233 131.042 58.12C129.899 57.7933 128.779 57.63 127.682 57.63C126.585 57.63 125.687 57.7583 124.987 58.015C124.287 58.2717 123.785 58.61 123.482 59.03C123.179 59.4267 123.027 59.8933 123.027 60.43C123.027 61.06 123.284 61.5733 123.797 61.97C124.31 62.3433 124.987 62.6467 125.827 62.88C126.667 63.1133 127.589 63.3467 128.592 63.58C129.619 63.8133 130.634 64.0817 131.637 64.385C132.664 64.6883 133.597 65.0967 134.437 65.61C135.277 66.1233 135.954 66.8 136.467 67.64C137.004 68.48 137.272 69.5417 137.272 70.825C137.272 72.2017 136.887 73.4617 136.117 74.605C135.347 75.7483 134.192 76.67 132.652 77.37C131.135 78.07 129.21 78.42 126.877 78.42Z" fill="white"/>
<path d="M149.721 78.28C147.715 78.28 145.93 77.86 144.366 77.02C142.826 76.18 141.601 75.0367 140.691 73.59C139.805 72.12 139.361 70.4517 139.361 68.585C139.361 66.695 139.805 65.0267 140.691 63.58C141.601 62.11 142.826 60.9667 144.366 60.15C145.93 59.31 147.715 58.89 149.721 58.89C151.705 58.89 153.478 59.31 155.041 60.15C156.605 60.9667 157.83 62.0983 158.716 63.545C159.603 64.9917 160.046 66.6717 160.046 68.585C160.046 70.4517 159.603 72.12 158.716 73.59C157.83 75.0367 156.605 76.18 155.041 77.02C153.478 77.86 151.705 78.28 149.721 78.28ZM149.721 73.8C150.631 73.8 151.448 73.59 152.171 73.17C152.895 72.75 153.466 72.155 153.886 71.385C154.306 70.5917 154.516 69.6583 154.516 68.585C154.516 67.4883 154.306 66.555 153.886 65.785C153.466 65.015 152.895 64.42 152.171 64C151.448 63.58 150.631 63.37 149.721 63.37C148.811 63.37 147.995 63.58 147.271 64C146.548 64.42 145.965 65.015 145.521 65.785C145.101 66.555 144.891 67.4883 144.891 68.585C144.891 69.6583 145.101 70.5917 145.521 71.385C145.965 72.155 146.548 72.75 147.271 73.17C147.995 73.59 148.811 73.8 149.721 73.8Z" fill="white"/>
<path d="M174.826 78.28C173.169 78.28 171.746 77.93 170.556 77.23C169.366 76.53 168.456 75.4683 167.826 74.045C167.196 72.5983 166.881 70.7783 166.881 68.585C166.881 66.3683 167.207 64.5483 167.861 63.125C168.537 61.7017 169.471 60.64 170.661 59.94C171.851 59.24 173.239 58.89 174.826 58.89C176.599 58.89 178.186 59.2867 179.586 60.08C181.009 60.8733 182.129 61.9933 182.946 63.44C183.786 64.8867 184.206 66.6017 184.206 68.585C184.206 70.545 183.786 72.2483 182.946 73.695C182.129 75.1417 181.009 76.2733 179.586 77.09C178.186 77.8833 176.599 78.28 174.826 78.28ZM163.696 78V52.03H169.156V62.985L168.806 68.55L168.911 74.15V78H163.696ZM173.881 73.8C174.791 73.8 175.596 73.59 176.296 73.17C177.019 72.75 177.591 72.155 178.011 71.385C178.454 70.5917 178.676 69.6583 178.676 68.585C178.676 67.4883 178.454 66.555 178.011 65.785C177.591 65.015 177.019 64.42 176.296 64C175.596 63.58 174.791 63.37 173.881 63.37C172.971 63.37 172.154 63.58 171.431 64C170.707 64.42 170.136 65.015 169.716 65.785C169.296 66.555 169.086 67.4883 169.086 68.585C169.086 69.6583 169.296 70.5917 169.716 71.385C170.136 72.155 170.707 72.75 171.431 73.17C172.154 73.59 172.971 73.8 173.881 73.8Z" fill="white"/>
<path d="M187.861 78V59.17H193.076V64.49L192.341 62.95C192.901 61.62 193.799 60.6167 195.036 59.94C196.272 59.24 197.777 58.89 199.551 58.89V63.93C199.317 63.9067 199.107 63.895 198.921 63.895C198.734 63.8717 198.536 63.86 198.326 63.86C196.832 63.86 195.619 64.2917 194.686 65.155C193.776 65.995 193.321 67.3133 193.321 69.11V78H187.861Z" fill="white"/>
<path d="M212.006 78.28C209.859 78.28 207.969 77.86 206.336 77.02C204.726 76.18 203.477 75.0367 202.591 73.59C201.704 72.12 201.261 70.4517 201.261 68.585C201.261 66.695 201.692 65.0267 202.556 63.58C203.442 62.11 204.644 60.9667 206.161 60.15C207.677 59.31 209.392 58.89 211.306 58.89C213.149 58.89 214.806 59.2867 216.276 60.08C217.769 60.85 218.947 61.97 219.811 63.44C220.674 64.8867 221.106 66.625 221.106 68.655C221.106 68.865 221.094 69.11 221.071 69.39C221.047 69.6467 221.024 69.8917 221.001 70.125H205.706V66.94H218.131L216.031 67.885C216.031 66.905 215.832 66.0533 215.436 65.33C215.039 64.6067 214.491 64.0467 213.791 63.65C213.091 63.23 212.274 63.02 211.341 63.02C210.407 63.02 209.579 63.23 208.856 63.65C208.156 64.0467 207.607 64.6183 207.211 65.365C206.814 66.0883 206.616 66.9517 206.616 67.955V68.795C206.616 69.8217 206.837 70.7317 207.281 71.525C207.747 72.295 208.389 72.89 209.206 73.31C210.046 73.7067 211.026 73.905 212.146 73.905C213.149 73.905 214.024 73.7533 214.771 73.45C215.541 73.1467 216.241 72.6917 216.871 72.085L219.776 75.235C218.912 76.215 217.827 76.9733 216.521 77.51C215.214 78.0233 213.709 78.28 212.006 78.28Z" fill="white"/>
<path d="M258.768 58.89C260.261 58.89 261.579 59.1933 262.723 59.8C263.889 60.3833 264.799 61.2933 265.453 62.53C266.129 63.7433 266.468 65.3067 266.468 67.22V78H261.008V68.06C261.008 66.5433 260.693 65.4233 260.063 64.7C259.433 63.9767 258.546 63.615 257.403 63.615C256.609 63.615 255.898 63.8017 255.268 64.175C254.638 64.525 254.148 65.0617 253.798 65.785C253.448 66.5083 253.273 67.43 253.273 68.55V78H247.813V68.06C247.813 66.5433 247.498 65.4233 246.868 64.7C246.261 63.9767 245.386 63.615 244.243 63.615C243.449 63.615 242.738 63.8017 242.108 64.175C241.478 64.525 240.988 65.0617 240.638 65.785C240.288 66.5083 240.113 67.43 240.113 68.55V78H234.653V59.17H239.868V64.315L238.888 62.81C239.541 61.5267 240.463 60.5583 241.653 59.905C242.866 59.2283 244.243 58.89 245.783 58.89C247.509 58.89 249.014 59.3333 250.298 60.22C251.604 61.0833 252.468 62.4133 252.888 64.21L250.963 63.685C251.593 62.215 252.596 61.0483 253.973 60.185C255.373 59.3217 256.971 58.89 258.768 58.89Z" fill="white"/>
<path d="M271.362 78V59.17H276.822V78H271.362ZM274.092 56.545C273.088 56.545 272.272 56.2533 271.642 55.67C271.012 55.0867 270.697 54.3633 270.697 53.5C270.697 52.6367 271.012 51.9133 271.642 51.33C272.272 50.7467 273.088 50.455 274.092 50.455C275.095 50.455 275.912 50.735 276.542 51.295C277.172 51.8317 277.487 52.5317 277.487 53.395C277.487 54.305 277.172 55.0633 276.542 55.67C275.935 56.2533 275.118 56.545 274.092 56.545Z" fill="white"/>
<path d="M306.004 58.89C307.497 58.89 308.816 59.1933 309.959 59.8C311.126 60.3833 312.036 61.2933 312.689 62.53C313.366 63.7433 313.704 65.3067 313.704 67.22V78H308.244V68.06C308.244 66.5433 307.929 65.4233 307.299 64.7C306.669 63.9767 305.782 63.615 304.639 63.615C303.846 63.615 303.134 63.8017 302.504 64.175C301.874 64.525 301.384 65.0617 301.034 65.785C300.684 66.5083 300.509 67.43 300.509 68.55V78H295.049V68.06C295.049 66.5433 294.734 65.4233 294.104 64.7C293.497 63.9767 292.622 63.615 291.479 63.615C290.686 63.615 289.974 63.8017 289.344 64.175C288.714 64.525 288.224 65.0617 287.874 65.785C287.524 66.5083 287.349 67.43 287.349 68.55V78H281.889V59.17H287.104V64.315L286.124 62.81C286.777 61.5267 287.699 60.5583 288.889 59.905C290.102 59.2283 291.479 58.89 293.019 58.89C294.746 58.89 296.251 59.3333 297.534 60.22C298.841 61.0833 299.704 62.4133 300.124 64.21L298.199 63.685C298.829 62.215 299.832 61.0483 301.209 60.185C302.609 59.3217 304.207 58.89 306.004 58.89Z" fill="white"/>
</svg>
